<?xml version="1.0" encoding="utf-8"?>
<!-- Generator: Adobe Illustrator 25.2.3, SVG Export Plug-In . SVG Version: 6.00 Build 0)  -->
<svg version="1.1" id="abilities" xmlns="http://www.w3.org/2000/svg" xmlns:xlink="http://www.w3.org/1999/xlink" x="0px" y="0px"
	 viewBox="0 0 61.5 62.2" style="enable-background:new 0 0 61.5 62.2;" xml:space="preserve">
<style type="text/css">
	.st0{fill:#034349;}
</style>
<path id="Path_119" class="st0" d="M57.1,56.6h-3.9V6.1c0-1.7-1.4-3.1-3.1-3.1H11C9.3,3,8,4.4,8,6.1v2.1H4.1C3.6,8.2,3.3,8.6,3.3,9
	v21.3c0,0.4,0.4,0.8,0.8,0.8H8v25.5H4.1c-0.4,0-0.8,0.4-0.8,0.8c0,0.4,0.4,0.8,0.8,0.8h9.5c0.4,0,0.8-0.4,0.8-0.8
	c0-0.4-0.4-0.8-0.8-0.8h-4V31.1h15.8c0.4,0,0.8-0.4,0.8-0.8V9.8h15.9c0.4,0,0.8-0.4,0.8-0.8c0-0.4-0.4-0.8-0.8-0.8H9.6V6.1
	c0-0.8,0.6-1.4,1.4-1.4h39.1c0.8,0,1.4,0.6,1.4,1.4c0,0,0,0,0,0v2.1h-5.7c-0.4,0-0.8,0.4-0.8,0.8c0,0.4,0.4,0.8,0.8,0.8h5.7v46.8
	H17.4c-0.4,0-0.8,0.3-0.8,0.8c0,0.4,0.3,0.8,0.8,0.8c0,0,0,0,0.1,0h39.6c0.4,0,0.8-0.4,0.8-0.8C57.8,57,57.5,56.6,57.1,56.6z
	 M20.4,23.2c-0.7-0.4-1.5-0.6-2.4-0.7c0.6-0.8,1-1.8,1-2.8v-1.6c0-0.4-0.2-0.7-0.6-0.8c-1.4-0.4-2-2.2-2-2.2c-0.2-0.4-0.6-0.6-1-0.5
	c-0.2,0.1-0.4,0.2-0.5,0.4c-0.9,1.9-3,2.2-3.9,2.3c-0.4,0-0.8,0.4-0.8,0.8v1.5c0,1,0.4,2,1,2.8c-0.8,0-1.5,0.3-2.2,0.7
	c0-0.9,0.1-1.9,0.3-2.8c0.3-1.1,0.5-2.1,0.7-3.2c0.2-2.4,2.2-4.4,4.6-4.5c2.4,0.1,4.3,1.9,4.6,4.3c0.2,1.1,0.4,2.2,0.7,3.3
	C20.3,21.2,20.4,22.2,20.4,23.2L20.4,23.2z M17.5,19.8c0,1.5-1.2,2.8-2.8,2.8s-2.8-1.2-2.8-2.8V19c1.4-0.2,2.7-0.9,3.7-1.9
	c0.5,0.7,1.1,1.3,1.8,1.7V19.8z M24.6,9.8v19.7H8.1v-1.9c0-1.9,1.6-3.5,3.5-3.5h2.3v2c0,0.4,0.3,0.8,0.8,0.8c0.4,0,0.8-0.3,0.8-0.8
	c0,0,0,0,0-0.1v-2h2.4c1,0,2,0.5,2.7,1.3l0,0c0.3,0.4,0.6,0.8,0.7,1.3c0.1,0.4,0.5,0.7,1,0.6c0.4-0.1,0.7-0.5,0.6-1c0,0,0,0,0,0
	c-0.2-0.6-0.4-1.2-0.8-1.7c0.1-1.6-0.1-3.2-0.5-4.8c-0.3-1-0.5-2-0.7-3.1c-0.4-3.1-3.1-5.5-6.2-5.7c-3.3,0.1-5.9,2.6-6.3,5.9
	c-0.1,1-0.4,2-0.6,3c-0.3,1.5-0.5,3.1-0.4,4.7c-0.6,0.9-1,1.9-1,3v1.9H4.9V9.8H24.6z"/>
<path id="Path_120" class="st0" d="M29.2,16.8h18.2c0.4,0,0.8-0.4,0.8-0.8V13c0-0.4-0.4-0.8-0.8-0.8H29.2c-0.4,0-0.8,0.4-0.8,0.8V16
	C28.4,16.4,28.8,16.8,29.2,16.8z M30,13.8h16.5v1.3H30L30,13.8z"/>
<path id="Path_121" class="st0" d="M13.4,40.4v4c0,0.4,0.4,0.8,0.8,0.8h32.7c0.4,0,0.8-0.4,0.8-0.8v-4c0-0.4-0.4-0.8-0.8-0.8H14.2
	C13.8,39.6,13.4,40,13.4,40.4C13.4,40.4,13.4,40.4,13.4,40.4z M46.1,43.6h-4.7v-2.4h4.7V43.6z M15.1,41.2h24.8v2.4H15.1V41.2z"/>
<path id="Path_122" class="st0" d="M13.4,52.7c0,0.4,0.4,0.8,0.8,0.8h32.7c0.4,0,0.8-0.4,0.8-0.8v-4c0-0.4-0.4-0.8-0.8-0.8H14.2
	c-0.4,0-0.8,0.4-0.8,0.8L13.4,52.7z M46.1,51.9h-9.3v-2.4h9.3V51.9z M15.1,49.5h20.1v2.4H15.1V49.5z"/>
<path id="Path_123" class="st0" d="M29.2,21.4h4V22c0,0.4,0.4,0.8,0.8,0.8h2.9c0.4,0,0.8-0.4,0.8-0.8v-0.6h9.7
	c0.4,0,0.8-0.3,0.8-0.8c0-0.4-0.3-0.8-0.8-0.8c0,0,0,0-0.1,0h-9.7v-0.6c0-0.4-0.4-0.8-0.8-0.8H34c-0.4,0-0.8,0.4-0.8,0.8v0.6h-4
	c-0.4,0-0.8,0.4-0.8,0.8C28.5,21,28.8,21.4,29.2,21.4L29.2,21.4z M34.8,19.9h1.3v1.3h-1.3V19.9z"/>
<path id="Path_124" class="st0" d="M29.2,25.5h10.6v0.6c0,0.4,0.4,0.8,0.8,0.8h2.9c0.4,0,0.8-0.4,0.8-0.8v-0.6h3
	c0.4,0,0.8-0.4,0.8-0.8c0-0.4-0.4-0.8-0.8-0.8h-3v-0.6c0-0.4-0.4-0.8-0.8-0.8h-2.9c-0.4,0-0.8,0.4-0.8,0.8v0.6H29.2
	c-0.4,0-0.8,0.3-0.8,0.8C28.4,25.1,28.7,25.5,29.2,25.5C29.2,25.5,29.2,25.5,29.2,25.5z M41.4,24.1h1.3v1.3h-1.3L41.4,24.1z"/>
<path id="Path_125" class="st0" d="M28.4,30.3c0,0.4,0.4,0.8,0.8,0.8h2.9c0.4,0,0.8-0.4,0.8-0.8v-0.6h14.4c0.4,0,0.8-0.4,0.8-0.8
	c0-0.4-0.4-0.8-0.8-0.8H33v-0.6c0-0.4-0.4-0.8-0.8-0.8h-2.9c-0.4,0-0.8,0.4-0.8,0.8L28.4,30.3z M30,28.2h1.3v1.3H30V28.2z"/>
<path id="Path_126" class="st0" d="M22.5,36.1c0,0.4,0.4,0.8,0.8,0.8h15c0.4,0,0.8-0.4,0.8-0.8c0-0.4-0.4-0.8-0.8-0.8h-15
	C22.9,35.3,22.5,35.6,22.5,36.1L22.5,36.1z"/>
</svg>
