<svg id="Capa_1" data-name="Capa 1" xmlns="http://www.w3.org/2000/svg" viewBox="0 0 484 484"><defs><style>.cls-1{fill:#fff;}</style></defs><path class="cls-1" d="M242,0C108.6,0,0,108.6,0,242S108.6,484,242,484,484,375.4,484,242,375.4,0,242,0Zm0,433.9C136.2,433.9,50.1,347.8,50.1,242S136.2,50.1,242,50.1,433.9,136.2,433.9,242,347.8,433.9,242,433.9Z"/><path class="cls-1" d="M283.3,228.4c-11.7-6.5-24.1-11.3-36.4-16.4A79.59,79.59,0,0,1,227,200.8c-11.8-9.5-9.6-24.8,4.3-30.9a34.08,34.08,0,0,1,12.2-2.5,92.28,92.28,0,0,1,45.9,9.1c7.2,3.5,9.6,2.4,12.1-5.1,2.6-8,4.8-16.1,7.1-24.1,1.6-5.4-.4-9-5.5-11.2a112.63,112.63,0,0,0-29-8.6c-13.1-2.1-13.1-2.1-13.2-15.3-.1-18.7-.1-18.7-18.7-18.6-2.7,0-5.4-.1-8.1,0-8.7.3-10.2,1.8-10.4,10.5-.1,3.9,0,7.9,0,11.8-.1,11.7-.1,11.5-11.3,15.5-27,9.8-43.7,28.2-45.5,57.7-1.6,26.1,12,43.7,33.4,56.5,13.2,7.9,27.8,12.6,41.8,18.8a61,61,0,0,1,15.2,9c13.5,11.1,11,29.6-5,36.6a50.25,50.25,0,0,1-26.8,3.5c-14.3-1.8-28-5.5-40.8-12.2-7.5-3.9-9.7-2.9-12.3,5.3-2.2,7.1-4.2,14.2-6.1,21.3-2.6,9.6-1.7,11.9,7.5,16.3,11.6,5.6,24.1,8.5,36.8,10.6,9.9,1.6,10.3,2,10.4,12.3,0,4.7.1,9.4.1,14,.1,5.9,2.9,9.3,9,9.4q10.35.15,20.7,0c5.6-.1,8.5-3.2,8.6-8.9,0-6.4.3-12.8.1-19.2s2.5-9.8,8.8-11.5a69.84,69.84,0,0,0,36.2-23.2C330.5,295.7,320.5,249,283.3,228.4Z"/></svg>