<svg id="cooperation" xmlns="http://www.w3.org/2000/svg" width="70.263" height="65" viewBox="0 0 70.263 65">
  <path id="Path_113" data-name="Path 113" d="M70,122.074l-4.845-4.845a1.058,1.058,0,0,0-1.5,1.5l.673.673L48.066,135.675,42.26,129.87l16.277-16.277,1.661,1.661a1.058,1.058,0,0,0,1.5-1.5l-2.416-2.4c-1.908-1.949-3.157-4.172-4.913-6.258a4.11,4.11,0,0,0-3.472-6.492,4.132,4.132,0,0,0-4.268-4.268,4.139,4.139,0,0,0-4.268-4.268,4.113,4.113,0,0,0-7.192-2.827l-.247-.247a4.068,4.068,0,0,0-6.945,3.074A4.124,4.124,0,0,0,23.7,94.337a4.09,4.09,0,0,0-2.676.837,5.051,5.051,0,0,0-4.406.535,5.8,5.8,0,0,0-2.814,4.817L12.615,109.8.359,122.074a1.06,1.06,0,0,0,0,1.5l17.773,17.773a1.072,1.072,0,0,0,.755.316,1.1,1.1,0,0,0,.755-.316l10.719-10.719a1.06,1.06,0,0,0,0-1.5l-1.8-1.8a20.354,20.354,0,0,1,6.629-4.213,20.353,20.353,0,0,1,6.629,4.213l-1.8,1.8a1.06,1.06,0,0,0,0,1.51l10.719,10.719a1.072,1.072,0,0,0,.755.316,1.1,1.1,0,0,0,.755-.316L70,123.57a1.081,1.081,0,0,0,.316-.755,1.017,1.017,0,0,0-.316-.741ZM51.1,100.719a1.983,1.983,0,0,1,1.784,2.745c-.851-.865-1.716-1.716-2.58-2.58.274-.055.535-.11.8-.165ZM46.83,96.45A1.974,1.974,0,0,1,48.615,99.2a11.9,11.9,0,0,0-3.088-2.251,1.908,1.908,0,0,1,1.3-.494Zm-28.7,7.851-.247-.247a1.96,1.96,0,1,1,2.772-2.772l.247.247-1.386,1.386ZM30.663,88.49a1.943,1.943,0,0,1,1.386-.576,1.966,1.966,0,0,1,1.386.576l.247.247L30.91,91.509l-.247-.247a1.98,1.98,0,0,1,0-2.772Zm-4.831,5.655a1.96,1.96,0,0,1,3.349-1.386l.247.247-1.386,1.386-1.386,1.386-.247-.247a1.953,1.953,0,0,1-.576-1.386ZM23.526,96.45a1.966,1.966,0,0,1,1.386.576l.247.247-2.772,2.772L22.14,99.8a1.963,1.963,0,0,1,1.386-3.349Zm-5.778,1.057a3.171,3.171,0,0,1,1.935-.48,4.125,4.125,0,0,0-.233,1.578,4.094,4.094,0,0,0-3.5,1.688A3.817,3.817,0,0,1,17.748,97.507Zm1.125,41.586L2.6,122.829l1.921-1.921,16.277,16.277ZM39.9,122.911a13.482,13.482,0,0,0-2.361-1.167,23.4,23.4,0,0,0,2.855-2.608,1.058,1.058,0,0,0-1.5-1.5,16.42,16.42,0,0,1-4.186,3.349c-2.9,1.441-5.339,2.512-7.658,4.831l-9-9a1.058,1.058,0,0,0-1.5,1.5L28.11,129.87,22.3,135.675,6.027,119.4l5.806-5.806,1.043,1.043a1.058,1.058,0,0,0,1.5-1.5L13.329,112.1l1.043-1.043a1.055,1.055,0,0,0,.3-.618l.81-6.245a7.5,7.5,0,0,0,1.894,2.361,1.06,1.06,0,0,0,1.5,0L36.921,88.5c1.77-1.77,4.543,1,2.772,2.772a1.072,1.072,0,0,0-.316.755,1.1,1.1,0,0,0,.316.755,1.06,1.06,0,0,0,1.5,0c1.784-1.784,4.543.988,2.772,2.772a1.072,1.072,0,0,0-.316.755c0-.247-8.413-.137-9.086-.137-4.611,0-5.38,6.821-.823,7.713l5.243,1.551a5.192,5.192,0,0,1,2.182,1.29l4.337,4.337L42.439,114.1a1.058,1.058,0,0,0,1.5,1.5l3.8-3.8a1.06,1.06,0,0,0,0-1.51l-5.078-5.078a7.323,7.323,0,0,0-3.074-1.825l-5.3-1.565c-1.949-.576-2.141-3.555.274-3.555h7.521a7.536,7.536,0,0,1,5.188,2.567s4.6,4.611,4.9,4.955c1.812,2.018,2.965,4.406,4.872,6.313L43.317,125.821a19.177,19.177,0,0,0-3.417-2.91Zm11.584,16.181-1.921-1.921,16.277-16.277,1.921,1.921Z" transform="translate(-0.05 -76.673)" fill="#034349"/>
  <path id="Path_114" data-name="Path 114" d="M249.357,23.582a1.057,1.057,0,0,0,1.057-1.057V20.357a1.057,1.057,0,0,0-2.114,0v2.168a1.057,1.057,0,0,0,1.057,1.057Z" transform="translate(-214.229 -19.3)" fill="#034349"/>
  <path id="Path_115" data-name="Path 115" d="M206.512,31.523a1.061,1.061,0,0,0,.974.631,1.171,1.171,0,0,0,.425-.082,1.068,1.068,0,0,0,.549-1.4L207.6,28.7a1.063,1.063,0,1,0-1.949.851Z" transform="translate(-177.354 -26.857)" fill="#034349"/>
  <path id="Path_116" data-name="Path 116" d="M171.873,56.46a1.04,1.04,0,0,0,.714.274,1.063,1.063,0,0,0,.727-1.839l-1.592-1.469a1.059,1.059,0,0,0-1.441,1.551Z" transform="translate(-146.627 -48.499)" fill="#034349"/>
  <path id="Path_117" data-name="Path 117" d="M285.333,32.072a1.171,1.171,0,0,0,.425.082,1.061,1.061,0,0,0,.974-.631l.865-1.976a1.063,1.063,0,0,0-1.949-.851l-.865,1.976A1.08,1.08,0,0,0,285.333,32.072Z" transform="translate(-245.634 -26.857)" fill="#034349"/>
  <path id="Path_118" data-name="Path 118" d="M316.2,56.92a1.055,1.055,0,0,0,.714-.274l1.592-1.469a1.059,1.059,0,1,0-1.441-1.551l-1.578,1.455a1.063,1.063,0,0,0,.714,1.839Z" transform="translate(-271.899 -48.672)" fill="#034349"/>
  <ellipse id="Ellipse_3" data-name="Ellipse 3" cx="1.194" cy="1.194" rx="1.194" ry="1.194" transform="translate(21.06 52.113)" fill="#034349"/>
</svg>
