<?xml version="1.0" encoding="utf-8"?>
<!-- Generator: Adobe Illustrator 25.1.0, SVG Export Plug-In . SVG Version: 6.00 Build 0)  -->
<svg version="1.1" id="Layer_1" xmlns="http://www.w3.org/2000/svg" xmlns:xlink="http://www.w3.org/1999/xlink" x="0px" y="0px"
	 viewBox="0 0 496 496" style="enable-background:new 0 0 496 496;" xml:space="preserve">
<style type="text/css">
	.st0{fill:#E2F5F8;}
	.st1{fill:#05373C;}
</style>
<g>
	<path class="st0" d="M337.6,353H14V161.8h323.6V353z"/>
	<path class="st0" d="M440.6,441.3H131.7v-66.2h308.9V441.3z"/>
	<path class="st0" d="M337.6,125H197.9V95.6h139.7V125z"/>
</g>
<path class="st1" d="M425.9,58.8V36.8c0-12.1-9.9-22.1-22.1-22.1h-29.4c-12.1,0-22.1,9.9-22.1,22.1v22.1H172.5l-70.2,78.1v24.9H117
	v-14.7h66.2V73.5h169.2v171.4l36.8,55.2l36.8-55.2V73.5h29.4V456H117V353h-14.7v117.7H470V58.8H425.9z M126.2,132.4l42.3-47.1v47.1
	H126.2z M374.4,29.4h29.4c4,0,7.4,3.3,7.4,7.4v36.8H367V36.8C367,32.7,370.3,29.4,374.4,29.4z M396.5,235.4V117.7h14.7v117.7H396.5z
	 M367,117.7h14.7v117.7H367V117.7z M367,103V88.3h44.1V103H367z M373.4,250.1h31.4l-15.6,23.5L373.4,250.1z"/>
<path class="st1" d="M197.9,88.3h139.7V103H197.9V88.3z"/>
<path class="st1" d="M197.9,117.7h139.7v14.7H197.9V117.7z"/>
<path class="st1" d="M131.7,367.7h308.9v14.7H131.7V367.7z"/>
<path class="st1" d="M131.7,397.2h14.7v14.7h-14.7V397.2z"/>
<path class="st1" d="M161.1,397.2h279.5v14.7H161.1V397.2z"/>
<path class="st1" d="M131.7,426.6h279.5v14.7H131.7V426.6z"/>
<path class="st1" d="M425.9,426.6h14.7v14.7h-14.7V426.6z"/>
<path class="st1" d="M146.4,272.1v7.4c0,13.7,9.4,25.1,22.1,28.4v15.7h14.7v-15.7c12.7-3.3,22.1-14.7,22.1-28.4
	c0-16.2-13.2-29.4-29.4-29.4c-8.1,0-14.7-6.6-14.7-14.7c0-8.1,6.6-14.7,14.7-14.7c8.1,0,14.7,6.6,14.7,14.7v7.4h14.7v-7.4
	c0-13.7-9.4-25.1-22.1-28.4v-15.7h-14.7v15.7c-12.7,3.3-22.1,14.7-22.1,28.4c0,16.2,13.2,29.4,29.4,29.4c8.1,0,14.7,6.6,14.7,14.7
	c0,8.1-6.6,14.7-14.7,14.7c-8.1,0-14.7-6.6-14.7-14.7v-7.4H146.4z"/>
<path class="st1" d="M293.5,250.1h14.7v14.7h-14.7V250.1z"/>
<path class="st1" d="M43.4,250.1h14.7v14.7H43.4V250.1z"/>
<path class="st1" d="M264.1,250.1h14.7v14.7h-14.7V250.1z"/>
<path class="st1" d="M234.6,250.1h14.7v14.7h-14.7V250.1z"/>
<path class="st1" d="M72.8,250.1h14.7v14.7H72.8V250.1z"/>
<path class="st1" d="M102.3,250.1H117v14.7h-14.7V250.1z"/>
</svg>
