<?xml version="1.0" encoding="utf-8"?>
<!-- Generator: Adobe Illustrator 25.1.0, SVG Export Plug-In . SVG Version: 6.00 Build 0)  -->
<svg version="1.1" id="Layer_5" xmlns="http://www.w3.org/2000/svg" xmlns:xlink="http://www.w3.org/1999/xlink" x="0px" y="0px"
	 viewBox="0 0 512 512" style="enable-background:new 0 0 512 512;" xml:space="preserve">
<style type="text/css">
	.st0{fill:#CCE7EA;}
	.st1{fill:#05373C;}
</style>
<g>
	<path class="st0" d="M312,424h160v40H312V424z"/>
</g>
<g>
	<path class="st0" d="M40,48h160v40H40V48z"/>
</g>
<g>
	<path class="st1" d="M487.1,240.5c10.1-7.3,16.5-19.1,16.6-32c0-10.7-4-20.8-11.4-28.4c-13-13.5-20.2-32.9-20.2-54.6V104
		c0-52.9-43.1-96-96-96s-96,43.1-96,96v22c0,20.9-7.5,40.1-21.2,54.2c-7.1,7.3-11.1,17-11.1,27.3c-0.1,13.4,6.8,25.6,17.4,32.9
		c-10.6,10.2-17,24.5-17,40.3V344h256v-63.3C504,265,497.6,250.8,487.1,240.5z M263.7,207.5c0-6.1,2.4-11.8,6.6-16.2
		c16.6-17.1,25.7-40.3,25.7-65.3v-22c0-44.1,35.9-80,80-80s80,35.9,80,80v21.4c0,25.9,8.8,49.3,24.7,65.8c4.5,4.6,7,10.8,6.9,17.3
		c0,9.7-6.1,18.3-15,21.9c-4.8-2.3-10-4.1-15.5-5l-35.8-6c-7.8-1.3-13.4-7.9-13.4-15.8v-4.3c19.1-11.1,32-31.7,32-55.3V88
		c0-17.6-14.4-32-32-32v16c8.8,0,16,7.2,16,16s-7.2,16-16,16s-16-7.2-16-16V72h-16v16c-11.9-0.3-22.6-6.9-27.9-17.6l-4.9-9.9
		l-14.3,7.2l4.9,9.9c0.4,0.8,0.9,1.5,1.4,2.3c-14.3,8.7-23.2,24-23.2,40.9V144c0,23.6,12.9,44.3,32,55.3v4.3
		c0,7.9-5.6,14.5-13.4,15.8l-35.8,6c-5.3,0.9-10.4,2.5-15,4.7C270.3,226.8,263.6,217.8,263.7,207.5L263.7,207.5z M376,192
		c-26.5,0-48-21.5-48-48v-23.3c0-12.1,6.6-22.9,17.4-28.4c8.5,7.4,19.6,11.7,31.4,11.7h3.7c5.6,9.5,15.8,16,27.6,16
		c5.9,0,11.3-1.7,16-4.4V144C424,170.5,402.5,192,376,192L376,192z M407.7,231.2c-7.7,18.3-18.4,34.9-31.7,49.3
		c-13.3-14.4-24.1-31.2-31.8-49.3c8.9-5.2,14.8-14.6,15.6-25.4c5.2,1.3,10.6,2.1,16.2,2.1s11-0.8,16.2-2.2
		C392.9,216.6,398.8,226,407.7,231.2L407.7,231.2z M344,307.9V328h-32v-56h-16v56h-32v-47.3c0-19.6,14.1-36.2,33.4-39.5l31.5-5.2
		c8.5,20.5,20.6,39.5,35.7,55.8c-4.7,4.3-9.7,8.4-14.9,12.1L344,307.9z M488,328h-32v-56h-16v56h-80v-11.9
		c28.2-20.4,49.8-48.1,63.1-80.2l31.5,5.3c19.4,3.2,33.4,19.8,33.4,39.4V328z"/>
	<path class="st1" d="M217.2,385.4l-35.8-6c-7.7-1.3-13.4-7.9-13.4-15.8v-4.3c12.2-7.1,21.9-18.1,27.3-31.3h4.7
		c17.6,0,32-14.4,32-32c0-7.2-2.5-13.8-6.5-19.1l2.6-7.7c2.6-7.8,3.9-16,3.9-24.3c0-42.4-34.5-76.8-76.8-76.8h-38.3
		C74.5,168,40,202.5,40,244.8c0,8.3,1.3,16.5,3.9,24.3l2.6,7.7c-4,5.4-6.5,11.9-6.5,19.1c0,17.6,14.4,32,32,32h4.7
		c5.4,13.2,15.1,24.2,27.3,31.3v4.3c0,7.9-5.6,14.5-13.4,15.8l-35.8,6C27.7,389.9,8,413.2,8,440.7V504h256v-63.3
		C264,413.2,244.3,389.9,217.2,385.4z M200,312h-0.6c0.3-2.6,0.6-5.3,0.6-8v-24c8.8,0,16,7.2,16,16S208.8,312,200,312z M72,312
		c-8.8,0-16-7.2-16-16s7.2-16,16-16v24c0,2.7,0.2,5.4,0.6,8H72z M72.1,264H72c-4.3,0-8.4,0.9-12.1,2.4l-0.8-2.3
		c-2.1-6.2-3.1-12.7-3.1-19.2c0-33.5,27.3-60.8,60.8-60.8h38.3c33.5,0,60.8,27.3,60.8,60.8c0,6.6-1,13-3.1,19.2l-0.8,2.3
		c-3.7-1.5-7.8-2.4-12.1-2.4h-3.6c-3.5-4.8-9.1-8-15.5-8h-27c-19.8,0-38.3-7.7-52.3-21.7l-4.1-4.1l-5.2,2.6
		C80.4,238.9,72.8,250.7,72.1,264L72.1,264z M88,304v-38.1c0-6.2,2.6-11.8,7.1-15.8c16.3,14.2,37,21.9,58.8,21.9h27c1.7,0,3,1.4,3,3
		v29c0,26.5-21.5,48-48,48S88,330.5,88,304z M154.2,375.4L139.5,400h-6.9l-14.8-24.6c1.2-3,1.8-6.2,2-9.5c5.2,1.4,10.6,2.2,16.2,2.2
		s11-0.8,16.2-2.2C152.4,369.2,153.1,372.4,154.2,375.4L154.2,375.4z M72,488v-56H56v56H24v-47.3c0-19.6,14.1-36.2,33.4-39.5
		l24.9-4.2l34.1,91H72z M113.3,433.9l-15-40c3.3-1.1,6.3-2.8,9.1-4.8l12.1,20.2L113.3,433.9z M138.5,488h-4.9l-10.4-27.7l11.1-44.3
		h3.5l11.1,44.3L138.5,488z M164.7,389.1c2.7,2.1,5.7,3.7,9.1,4.8l-15,40l-6.2-24.7L164.7,389.1z M248,488h-32v-56h-16v56h-44.5
		l34.1-91l24.9,4.2c19.4,3.2,33.4,19.8,33.4,39.5V488z"/>
	<path class="st1" d="M480,392h-8v-12.7c0-10.6-8.7-19.3-19.3-19.3c-5.1,0-10.1,2.1-13.7,5.7L412.7,392H304c-13.2,0-24,10.8-24,24
		v64c0,13.2,10.8,24,24,24h176c13.2,0,24-10.8,24-24v-64C504,402.8,493.2,392,480,392z M488,480c0,4.4-3.6,8-8,8H304
		c-4.4,0-8-3.6-8-8v-64c0-4.4,3.6-8,8-8h115.3l31-31c1.9-1.9,5.7-0.4,5.7,2.3V408h24c4.4,0,8,3.6,8,8V480z"/>
	<path class="st1" d="M312,424h16v16h-16V424z"/>
	<path class="st1" d="M344,424h128v16H344V424z"/>
	<path class="st1" d="M312,456h160v16H312V456z"/>
	<path class="st1" d="M32,120h8v12.7c0,10.6,8.7,19.3,19.3,19.3c5.2,0,10-2,13.7-5.7L99.3,120H208c13.2,0,24-10.8,24-24V32
		c0-13.2-10.8-24-24-24H32C18.8,8,8,18.8,8,32v64C8,109.2,18.8,120,32,120z M24,32c0-4.4,3.6-8,8-8h176c4.4,0,8,3.6,8,8v64
		c0,4.4-3.6,8-8,8H92.7l-31,31c-1.9,1.9-5.7,0.4-5.7-2.3V104H32c-4.4,0-8-3.6-8-8L24,32z"/>
	<path class="st1" d="M184,72h16v16h-16V72z"/>
	<path class="st1" d="M40,72h128v16H40V72z"/>
	<path class="st1" d="M40,40h160v16H40V40z"/>
</g>
<rect x="32" y="31" class="st0" width="176" height="66"/>
<rect x="310" y="420" class="st0" width="162" height="52"/>
</svg>
