<?xml version="1.0" encoding="utf-8"?>
<!-- Generator: Adobe Illustrator 25.2.3, SVG Export Plug-In . SVG Version: 6.00 Build 0)  -->
<svg version="1.1" id="Layer_1" xmlns="http://www.w3.org/2000/svg" xmlns:xlink="http://www.w3.org/1999/xlink" x="0px" y="0px"
	 viewBox="0 0 2500 2500" style="enable-background:new 0 0 2500 2500;" xml:space="preserve">
<style type="text/css">
	.st0{fill:url(#SVGID_1_);}
	.st1{fill:url(#SVGID_2_);}
	.st2{fill:url(#SVGID_3_);}
	.st3{fill:url(#SVGID_4_);}
	.st4{fill:url(#SVGID_5_);}
</style>
<g>
	<linearGradient id="SVGID_1_" gradientUnits="userSpaceOnUse" x1="588.0318" y1="253.6841" x2="2160.4863" y2="2450.1301">
		<stop  offset="0" style="stop-color:#5A12F7"/>
		<stop  offset="0.4498" style="stop-color:#C217F5"/>
		<stop  offset="1" style="stop-color:#FF1B59"/>
	</linearGradient>
	<path class="st0" d="M2199.4,714c62.5-37.3,78.7-120.9,34.3-178.6C2013,248.2,1666.5,74.5,1300.2,74.5
		c-322.2,0-622.9,127.7-846.5,360c-223.6,232.1-340,537.7-328,860.6c22.4,601.6,510.6,1097.4,1111.5,1128.8
		c20.9,1.1,41.8,1.7,62.6,1.7c415.1,0,798.7-216.8,1011.8-576c60.7-102.1,61.7-224.9,2.6-328.5c-59.8-104.9-167.4-167.6-287.7-167.6
		c-114.5,0-222.9,61.1-282.5,159.7c-93.1,153.5-255.6,244.9-434.6,244.9c-60.2,0-118.5-10.3-173-30.1
		c-74.3-26.5-141.6-70.5-197.7-130.1c-96.9-103.4-145.4-238.5-136.3-380.6c15.8-251.6,225.5-459.8,477.3-474.1
		c28-1.7,55.9-0.9,83.1,2.3c123.9,13,238.3,71,321.9,162.6c38.7,42.5,102.8,50.3,151.9,20.3l0,0c64.7-39.5,78.8-128.7,27.8-184.7
		c-151-165.4-369.7-256.6-598.6-243.7C968.5,516.5,717.4,706,611.6,969.9c-0.2,0.4-0.4,0.9-0.8,1.5
		c-28.6,71.8-46.5,149.1-51.5,229.8v0.6c-13.2,209.9,58.7,409.6,202.2,562.5c141.4,150.6,341.1,237.1,548,237.1
		c264.8,0,505.1-135.4,642.8-362.2c16-26.5,43.8-42.5,74.3-42.5c45.7,0,68.5,31.2,76.2,44.6c7.1,12.8,21.8,46.6-0.4,83.9
		c-177.5,299.2-504.4,473.9-852.3,455.5C773.9,2155.8,386.8,1762.8,369,1286c-9.4-256.3,82.9-498.6,260.1-682.7
		c177.3-184.1,415.8-285.5,671.2-285.5c291,0,566.4,138.5,741.4,367.2C2078.7,733.6,2147,745.3,2199.4,714L2199.4,714z"/>
	<linearGradient id="SVGID_2_" gradientUnits="userSpaceOnUse" x1="888.4149" y1="2138.0605" x2="757.3771" y2="1660.7075">
		<stop  offset="0" style="stop-color:#FFFFFF"/>
		<stop  offset="1" style="stop-color:#352ABE"/>
	</linearGradient>
	<path class="st1" d="M1459.5,2167.9c-68.2,11.8-138.4,16.5-209.5,12.8c-308.2-16-579.1-186.4-736.6-433.9
		c-349.7-137.3-388-470.1-388-470.1c0.1,6.1,0.2,12.2,0.4,18.4c22.4,601.6,510.6,1097.4,1111.5,1128.8c20.9,1.1,41.8,1.7,62.6,1.7
		c53.8,0,107.1-3.7,159.6-10.9V2167.9z"/>
	<linearGradient id="SVGID_3_" gradientUnits="userSpaceOnUse" x1="1390.87" y1="1199.6919" x2="416.6335" y2="1199.6919">
		<stop  offset="0" style="stop-color:#FFFFFF"/>
		<stop  offset="1" style="stop-color:#352ABE"/>
	</linearGradient>
	<path class="st2" d="M1362.9,745.1c-27.3-3.2-55.1-3.9-83.1-2.3c-251.8,14.3-461.5,222.5-477.3,474.1
		c-9,142.2,39.5,277.2,136.3,380.6c56,59.6,123.4,103.6,197.7,130.1c-15.4,1.5-30.8,2.3-46.6,2.3c-292.3,0-529.4-236.2-530.5-528.3
		v-2.1c0-81.6,18.6-159.3,51.5-228.3c0.4-0.6,0.6-1.1,0.8-1.5c85.8-177.9,267.6-300.5,478.2-300.5
		C1189.7,669.4,1283.1,697,1362.9,745.1z"/>
	<g>
		<linearGradient id="SVGID_4_" gradientUnits="userSpaceOnUse" x1="1516.6801" y1="1430.3103" x2="1140.9727" y2="1095.9939">
			<stop  offset="0" style="stop-color:#5A12F7"/>
			<stop  offset="0.4498" style="stop-color:#C217F5"/>
			<stop  offset="1" style="stop-color:#FF1B59"/>
		</linearGradient>
		<circle class="st3" cx="1297.3" cy="1235.1" r="305.7"/>
		<linearGradient id="SVGID_5_" gradientUnits="userSpaceOnUse" x1="1159.151" y1="1091.8784" x2="1394.7648" y2="1343.4116">
			<stop  offset="0" style="stop-color:#FFFFFF"/>
			<stop  offset="1" style="stop-color:#352ABE"/>
		</linearGradient>
		<path class="st4" d="M1474,1106.1c0,168.9-136.8,305.7-305.7,305.7c-51.1,0-99.4-12.7-141.6-34.9c-22.3-42.4-34.9-90.6-34.9-141.8
			c0-168.7,136.8-305.7,305.5-305.7c51.2,0,99.6,12.7,142,35.1C1461.5,1006.7,1474,1054.8,1474,1106.1z"/>
	</g>
</g>
</svg>
