<?xml version="1.0" encoding="utf-8"?>
<!-- Generator: Adobe Illustrator 25.2.3, SVG Export Plug-In . SVG Version: 6.00 Build 0)  -->
<svg version="1.1" id="Layer_1" xmlns="http://www.w3.org/2000/svg" xmlns:xlink="http://www.w3.org/1999/xlink" x="0px" y="0px"
	 viewBox="0 0 2500 2500" style="enable-background:new 0 0 2500 2500;" xml:space="preserve">
<style type="text/css">
	.st0{fill:#FF045F;}
	.st1{fill:#1E18CF;}
	.st2{fill:#FFC100;}
</style>
<g>
	<polygon class="st0" points="948.1,1814.9 1230.6,2097.5 948.1,2380 100.7,1532.4 383.2,1249.9 665.6,1532.4 948.1,1249.9 
		1230.6,1532.4 	"/>
	<polygon class="st1" points="2360.7,1532.4 1513.1,2380 1230.6,2097.5 1513.1,1814.9 1230.6,1532.4 1513.1,1249.9 1795.6,1532.4 
		2078.2,1249.9 	"/>
	<polygon class="st2" points="2360.7,967.4 2078.2,1249.9 1795.6,967.4 1513.1,1249.9 1230.6,967.4 1513.1,684.9 1230.6,402.5 
		1513.1,120 	"/>
	<polygon class="st1" points="948.1,684.9 1230.6,967.4 948.1,1249.9 665.6,967.4 383.2,1249.9 100.7,967.4 948.1,120 1230.6,402.5 
			"/>
</g>
</svg>
