<?xml version="1.0" encoding="utf-8"?>
<!-- Generator: Adobe Illustrator 25.2.3, SVG Export Plug-In . SVG Version: 6.00 Build 0)  -->
<svg version="1.1" id="Layer_1" xmlns="http://www.w3.org/2000/svg" xmlns:xlink="http://www.w3.org/1999/xlink" x="0px" y="0px"
	 viewBox="0 0 2500 2500" style="enable-background:new 0 0 2500 2500;" xml:space="preserve">
<style type="text/css">
	.st0{fill:url(#SVGID_1_);}
	.st1{fill:url(#SVGID_2_);}
	.st2{fill:url(#SVGID_3_);}
	.st3{fill:url(#SVGID_4_);}
	.st4{fill:url(#SVGID_5_);}
	.st5{fill:url(#SVGID_6_);}
	.st6{fill:url(#SVGID_7_);}
	.st7{fill:url(#SVGID_8_);}
</style>
<g>
	<linearGradient id="SVGID_1_" gradientUnits="userSpaceOnUse" x1="840.5449" y1="1806.2322" x2="165.4636" y2="1036.2163">
		<stop  offset="0" style="stop-color:#1E18CF"/>
		<stop  offset="1" style="stop-color:#625DDD"/>
	</linearGradient>
	<path class="st0" d="M1008.9,1780l-25.6-65c-35.5-90.8-107.5-162.7-198.3-198.3l-65-25.6l-26.9-10.4l0-0.1l-152-59.6l0.1-0.1
		l-32.6-12.7l-155.3-60.9l-127.7-50c-20.8-9.1-31.2-24.4-31.2-46c0-0.7,0-0.9,0.2-1.4c-0.2-0.5-0.2-0.9-0.2-1.4
		c0-21.7,10.4-37.1,31.2-45.9l127.7-50.2l155.3-60.9l32.6-12.7l-62.7-143.7l-2.5-5.9l-149.8,58.8l-177.7,69.7
		c-43.2,17.2-73.8,41.4-91.2,72.4c-17.7,31-26.5,71.1-26.5,119.7c0,48.7,8.8,88.5,26.5,119.7c17.4,31,48,55.2,91.2,72.2l177.7,69.7
		l149.8,58.8l0,0l5.9,2.3l146,57.4l50.3-115.1L628,1630.4l31.2,12.2c90.8,35.8,162.5,107.5,198.3,198.3l12.2,31.2l149.6-65.2
		L1008.9,1780z"/>
	<linearGradient id="SVGID_2_" gradientUnits="userSpaceOnUse" x1="1880.8751" y1="2016.4048" x2="1754.2976" y2="1267.4849">
		<stop  offset="0" style="stop-color:#4CD9DF"/>
		<stop  offset="1" style="stop-color:#00C9D2"/>
	</linearGradient>
	<path class="st1" d="M2164.4,1892.9l-76-175l-64.3-147.4l-1.2,0.4l1.1-0.4l-2.5-5.8l-62.6-143.7l-66.2,25.9l66.2-26l-13.6-30.8
		c-38.9-89.4-38.9-191,0-280.4l13.6-30.8l-152.1-59.5l-11.5,26.3l-27.8,63.8c-39.2,89.6-39.2,191.5,0,280.9l27.8,63.8l11.5,26.4l0,0
		l65.4,149.6l68.4-26.9l-68.3,27l13.8,31.9l67,153l54.8,125.6c8.1,20.8,4.8,39.2-10.6,54.5l-0.9,0.9c-0.2,0.2-0.5,0.7-0.9,0.9
		c-15.4,15.4-33.5,18.8-54.5,10.6l-125.6-55l-153-66.8l-31.9-14l-57.3,146l-2.5,5.9l147.6,64.3l175,76.3
		c42.6,18.6,81.3,23.1,115.7,13.4c34.4-9.5,68.8-31.5,103.2-65.9c34.4-34.4,56.6-68.8,66.1-103.2
		C2187.5,1974.4,2183,1935.7,2164.4,1892.9z"/>
	<linearGradient id="SVGID_3_" gradientUnits="userSpaceOnUse" x1="780.0734" y1="944.2322" x2="1439.3331" y2="153.1213">
		<stop  offset="0" style="stop-color:#1E18CF"/>
		<stop  offset="1" style="stop-color:#625DDD"/>
	</linearGradient>
	<path class="st2" d="M1511.7,326.4l-69.7-177.7c-17-43.2-41.2-73.8-72.2-91.2C1338.5,39.8,1298.7,31,1250,31
		c-48.7,0-88.5,8.8-119.7,26.5c-31,17.4-55.2,48-72.2,91.2l-69.9,177.7L929.5,476l5.9,2.5l95.3,41.6l-95.4-41.6l-5.8-2.5l-2.3,6
		l-57.4,145.9l0,0l-12.2,31.2C821.8,749.9,750,821.6,659.2,857.4l-31.5,12.4l65.4,149.6l26.9-10.6l64.7-25.4
		c91-35.5,163-107.5,198.5-198.5l25.6-65l10.4-26.7l-41.4-18.1l41.4,18.1l59.6-152.1l-0.1,0l12.9-32.3l60.9-155.5l50-127.7
		c9.1-20.6,24.2-31,46-31h2.7c21.7,0,36.9,10.4,45.9,31l50,127.7l61.1,155.5l12.7,32.4l143.7-62.5l5.7-2.7L1511.7,326.4z"/>
	<linearGradient id="SVGID_4_" gradientUnits="userSpaceOnUse" x1="2103.427" y1="459.3212" x2="1312.3169" y2="854.8771">
		<stop  offset="0" style="stop-color:#4CD9DF"/>
		<stop  offset="1" style="stop-color:#00C9D2"/>
	</linearGradient>
	<path class="st3" d="M2178,491.4c-9.5-34.4-31.7-68.8-66.1-103.2c-34.4-34.6-68.8-56.6-103.2-66.1c-34.4-9.5-73.1-5-115.7,13.4
		l-175,76.3L1570.5,476l0,0.1l-5.8,2.5l-143.7,62.6l0,0l-31,13.6c-89.2,38.9-190.8,38.9-280.2,0l-31-13.6l-59.5,152.1l26.5,11.5
		l63.8,27.8c89.4,39.2,191.3,39.2,280.7,0l64.1-27.8l26.3-11.5l-10.4-26.7l10.4,26.6l149.6-65.3L1572.9,482l-1.3-3.2l1.3,3.3
		l57.3,145.8l31.9-13.8l153-67l125.6-54.8c21-8.1,39.2-4.8,54.5,10.6c0.2,0.2,0.7,0.5,0.9,0.9c0.2,0.2,0.7,0.5,0.9,0.9
		c15.4,15.4,18.8,33.5,10.6,54.5L1953,684.9l-67,153l-13.8,31.9l145.8,57.3l6.1,2.3l64.1-147.4l76.5-175
		C2183,564.3,2187.5,525.8,2178,491.4z"/>
	<linearGradient id="SVGID_5_" gradientUnits="userSpaceOnUse" x1="1480.649" y1="1099.2523" x2="2469.1006" y2="1099.2523">
		<stop  offset="0" style="stop-color:#1E18CF"/>
		<stop  offset="1" style="stop-color:#625DDD"/>
	</linearGradient>
	<path class="st4" d="M2442.6,1130.4c-17.4-31-48-55.2-91.2-72.4l-177.7-69.7l-149.6-58.8l-1.7,3.7l1.6-3.7l-5.9-2.3l-145.9-57.3
		l0,0.1l-31.4-12.4c-90.8-35.8-162.5-107.5-198.3-198.3l-12.2-31.2l-149.6,65.4l10.4,26.7l25.6,65c35.5,91,107.5,163,198.5,198.5
		l64.7,25.4l26.9,10.6v0l152,59.6l37.5-86l-37.4,86l32.4,12.7l155.3,60.9l127.9,50.2c20.6,8.8,31,24.2,31,45.9c0,0.5,0,0.9-0.2,1.4
		c0.2,0.5,0.2,0.7,0.2,1.4c0,21.5-10.4,36.9-31,46l-127.9,50l-155.3,60.9l-32.4,12.7l62.7,143.7l2.5,5.9l149.6-58.9l177.7-69.7
		c43.2-17,73.8-41.2,91.2-72.2c17.7-31.2,26.5-71.1,26.5-119.7C2469.1,1201.4,2460.3,1161.4,2442.6,1130.4z"/>
	<linearGradient id="SVGID_6_" gradientUnits="userSpaceOnUse" x1="594.8459" y1="1885.583" x2="1227.7349" y2="1669.3458">
		<stop  offset="0" style="stop-color:#4CD9DF"/>
		<stop  offset="1" style="stop-color:#00C9D2"/>
	</linearGradient>
	<path class="st5" d="M1454.2,1795.4l-63.8-28.1c-89.6-38.9-191.3-38.9-280.7,0l-63.8,28.1l-26.4,11.5l0-0.1l-149.6,65.3l0-0.1
		l-31.9,14l-153,66.8l-125.6,54.8c-21.1,8.4-39.2,5-54.6-10.4c-0.2-0.2-0.7-0.7-0.9-0.9c-0.2-0.2-0.7-0.7-0.9-0.9
		c-15.4-15.4-18.8-33.7-10.6-54.5l55-125.6l66.8-153.2l14-31.7l-146-57.5l-5.9-2.3L411.6,1718l-76.1,175
		c-18.6,42.8-23.1,81.3-13.6,115.9c9.7,34.4,31.7,68.8,66.1,103.2c34.4,34.4,68.8,56.4,103.2,65.9c34.4,9.7,73.1,5.2,115.7-13.4
		l175-76.3l147.5-64.3v0l5.8-2.5l143.8-62.7l-36-91.8l36.1,91.7l30.8-13.4c89.4-38.9,190.8-38.9,280.2,0l31,13.4l59.5-151.9
		L1454.2,1795.4z"/>
	<linearGradient id="SVGID_7_" gradientUnits="userSpaceOnUse" x1="622.7156" y1="509.3294" x2="812.5822" y2="1284.6169">
		<stop  offset="0" style="stop-color:#4CD9DF"/>
		<stop  offset="1" style="stop-color:#00C9D2"/>
	</linearGradient>
	<path class="st6" d="M781.9,411.7l-175-76.3c-42.6-18.3-81.3-22.9-115.7-13.4c-34.4,9.5-68.8,31.5-103.2,66.1
		c-34.4,34.4-56.4,68.8-66.1,103.2c-9.5,34.4-5,72.9,13.4,115.7l76.5,175l64.3,147.3l-0.1,0l2.6,5.9l62.6,143.7l73.5-28.8
		l-73.4,28.8l13.3,31c38.9,89.4,38.9,190.8,0,280.2l-13.3,30.8l151.9,59.8l11.5-26.5l27.8-63.8c39.2-89.4,39.2-191,0.2-280.7
		l-28.1-63.8l-11.5-26.5l0.1,0l-65.4-149.7l-0.1,0L614,837.9l-66.8-153l-55-125.6c-8.2-21-4.8-39.2,10.6-54.5
		c0.2-0.5,0.7-0.7,0.9-0.9c0.2-0.5,0.7-0.7,0.9-0.9c15.4-15.4,33.5-18.8,54.6-10.6l125.6,54.8l153,67l31.9,13.8l57.5-145.8l2.3-6.1
		L781.9,411.7z"/>
	<linearGradient id="SVGID_8_" gradientUnits="userSpaceOnUse" x1="1657.1211" y1="1466.0736" x2="1071.6992" y2="2367.9404">
		<stop  offset="0" style="stop-color:#1E18CF"/>
		<stop  offset="1" style="stop-color:#625DDD"/>
	</linearGradient>
	<path class="st7" d="M1806.8,1480.8l-26.9,10.4l-65,25.6c-90.8,35.5-162.7,107.5-198.3,198.3l-25.6,65l-10.4,26.9l0,0l-59.6,152
		l0.1,0l-12.6,32.3l-61.1,155.5l-50,127.7c-9.1,20.6-24.2,31.2-45.9,31.2c-0.4,0-0.9,0-1.4-0.2c-0.5,0.2-0.9,0.2-1.4,0.2
		c-21.7,0-36.9-10.6-46-31.2l-50-127.7l-60.9-155.5l-12.7-32.4l-144,62.7l-5.7,2.5l58.6,149.8l69.9,177.5
		c17,43.5,41.2,73.8,72.2,91.4c31.2,17.7,71.1,26.3,119.7,26.3c48.7,0,88.5-8.6,119.7-26.3c31-17.7,55.2-48,72.2-91.4l69.7-177.5
		l58.9-149.8l-2.7-1.2l2.8,1.2l2.3-5.9l57.3-145.9l-80.5-35.2l80.5,35.1l12.2-31.2c35.8-90.8,107.5-162.5,198.3-198.3l31.5-12.2
		L1806.8,1480.8z"/>
</g>
</svg>
