<svg id="Layer_1" data-name="Layer 1" xmlns="http://www.w3.org/2000/svg" viewBox="0 0 157.13 31.79"><defs><style>.cls-1{fill:#084089;}.cls-2{fill:#ff8d27;}</style></defs><path class="cls-1" d="M33.16,38.21h-5.9c-1.13,0-1.36-1-1.36-2.12S26.13,34,27.26,34h8.89V30.1H25.76c-2.22,0-4.69,1.34-4.69,4.17V37.9c0,2.83,2.47,4.17,4.69,4.17h5.9c1.14,0,1.36,1,1.36,2.12s-.22,2.12-1.36,2.12H21.07v3.86H33.16c2.22,0,4.69-1.33,4.69-4.16V42.37C37.85,39.54,35.38,38.21,33.16,38.21Z" transform="translate(-21.07 -24)"/><path class="cls-1" d="M128.31,38.21h-5.9c-1.13,0-1.36-1-1.36-2.12s.23-2.13,1.36-2.13h8.89V30.1H120.91c-2.22,0-4.69,1.34-4.69,4.17V37.9c0,2.83,2.47,4.17,4.69,4.17h5.9c1.14,0,1.36,1,1.36,2.12s-.22,2.12-1.36,2.12H116.22v3.86h12.09c2.22,0,4.69-1.33,4.69-4.16V42.37C133,39.54,130.53,38.21,128.31,38.21Z" transform="translate(-21.07 -24)"/><polygon class="cls-1" points="34.31 10.72 29.54 10.72 26.49 16.18 23.67 16.18 23.67 6.1 19.29 6.1 19.29 26.17 23.67 26.17 23.67 19.95 26.07 19.95 29.54 26.17 34.31 26.17 29.99 18.45 34.31 10.72"/><path class="cls-1" d="M69.68,34.72,66.18,44l-3.61-9.25H57.79l6.05,15.45a1.4,1.4,0,0,1-1.38.91H59.59v3.56h4.94c2.46,0,4.08-4.47,4.08-4.47l5.84-15.45Z" transform="translate(-21.07 -24)"/><path class="cls-1" d="M88.8,30.1H76.45V50.17H88.8c2.22,0,4.69-1.33,4.69-4.16V34.27C93.49,31.44,91,30.1,88.8,30.1Zm-.14,14.09c0,.65-.06,2.12-1.46,2.12h-6V34h6c1.4,0,1.46,1.47,1.46,2.13Z" transform="translate(-21.07 -24)"/><path class="cls-1" d="M109.17,30.1h-8.46c-2.22,0-4.69,1.34-4.69,4.17V46c0,2.83,2.47,4.16,4.69,4.16h8.46c2.22,0,4.69-1.33,4.69-4.16V34.27C113.86,31.44,111.39,30.1,109.17,30.1ZM109,44.19c0,.65-.06,2.12-1.46,2.12h-5.26c-1.4,0-1.46-1.47-1.46-2.12v-8.1c0-.66.06-2.13,1.46-2.13h5.26c1.4,0,1.46,1.47,1.46,2.13Z" transform="translate(-21.07 -24)"/><path class="cls-2" d="M106.89,43.32c0,.35-.2.63-.45.63h-3c-.25,0-.45-.28-.45-.63V37c0-.35.2-.63.45-.63h3c.25,0,.45.28.45.63Z" transform="translate(-21.07 -24)"/><path class="cls-1" d="M141.5,24l18.35,31.79L178.2,24Zm7.38,4.45h21.94l-11,19Z" transform="translate(-21.07 -24)"/><polygon class="cls-2" points="144.58 7.47 138.78 17.52 132.98 7.47 144.58 7.47"/></svg>