<svg id="Group_14" data-name="Group 14" xmlns="http://www.w3.org/2000/svg" xmlns:xlink="http://www.w3.org/1999/xlink" width="169.253" height="34.238" viewBox="0 0 169.253 34.238">
  <defs>
    <clipPath id="clip-path">
      <rect id="Rectangle_3" data-name="Rectangle 3" width="169.253" height="34.238" fill="none"/>
    </clipPath>
  </defs>
  <g id="Group_1" data-name="Group 1" clip-path="url(#clip-path)">
    <path id="Path_1" data-name="Path 1" d="M13.018,45.591H6.661C5.442,45.591,5.2,44.5,5.2,43.306s.243-2.286,1.462-2.286H16.24V36.862H5.05C2.656,36.862,0,38.3,0,41.347v3.918c0,3.048,2.656,4.485,5.05,4.485h6.357c1.219,0,1.462,1.089,1.462,2.286s-.243,2.286-1.462,2.286H0v4.158H13.018c2.394,0,5.05-1.437,5.05-4.485V50.076c0-3.047-2.656-4.484-5.05-4.484" transform="translate(0 -30.288)" fill="#fff"/>
    <path id="Path_2" data-name="Path 2" d="M587.684,45.591h-6.357c-1.219,0-1.462-1.088-1.462-2.286s.243-2.286,1.462-2.286h9.579V36.862H579.717c-2.394,0-5.051,1.437-5.051,4.485v3.918c0,3.048,2.656,4.485,5.051,4.485h6.357c1.219,0,1.462,1.089,1.462,2.286s-.244,2.286-1.462,2.286H574.666v4.158h13.018c2.394,0,5.051-1.437,5.051-4.485V50.076c0-3.047-2.656-4.484-5.051-4.484" transform="translate(-472.176 -30.288)" fill="#fff"/>
    <path id="Path_3" data-name="Path 3" d="M132.682,41.834h-5.14l-3.288,5.885h-3.037V36.863H116.5V58.479h4.716v-6.7H123.8l3.743,6.7h5.14l-4.651-8.323Z" transform="translate(-95.723 -30.288)" fill="#fff"/>
    <path id="Path_4" data-name="Path 4" d="M234.572,64.736,230.806,74.7l-3.9-9.961h-5.14l6.509,16.646a1.5,1.5,0,0,1-1.477.979h-3.091v3.831h5.312c2.656,0,4.4-4.811,4.4-4.811l6.292-16.646Z" transform="translate(-182.219 -53.191)" fill="#fff"/>
    <path id="Path_5" data-name="Path 5" d="M347.75,36.862h-13.3V58.479h13.3c2.394,0,5.05-1.437,5.05-4.485V41.347c0-3.048-2.656-4.485-5.05-4.485M347.6,52.035c0,.706-.07,2.286-1.572,2.286h-6.422v-13.3h5.2v0h1.219c1.5,0,1.572,1.58,1.572,2.286Z" transform="translate(-274.801 -30.288)" fill="#fff"/>
    <path id="Path_6" data-name="Path 6" d="M466.822,36.86H457.71c-2.394,0-5.05,1.437-5.05,4.485V53.992c0,3.048,2.656,4.485,5.05,4.485h9.113c2.395,0,5.05-1.437,5.05-4.485V41.345c0-3.048-2.655-4.485-5.05-4.485m-.148,15.173c0,.706-.07,2.286-1.572,2.286H459.43c-1.5,0-1.572-1.58-1.572-2.286V43.3c0-.706.07-2.286,1.572-2.286H465.1c1.5,0,1.572,1.58,1.572,2.286Z" transform="translate(-371.93 -30.286)" fill="#fff"/>
    <path id="Path_7" data-name="Path 7" d="M498.935,81.96c0,.376-.215.679-.483.679h-3.241c-.267,0-.483-.3-.483-.679V75.1c0-.375.215-.679.483-.679h3.241c.267,0,.483.3.483.679Z" transform="translate(-406.496 -61.147)" fill="#ff8d27"/>
    <path id="Path_8" data-name="Path 8" d="M727.336,0,747.1,34.238,766.871,0Zm7.952,4.8h23.631L747.1,25.262Z" transform="translate(-597.618)" fill="#fff"/>
    <path id="Path_9" data-name="Path 9" d="M815.641,45.145l-6.247,10.82-6.247-10.82Z" transform="translate(-659.909 -37.094)" fill="#ff8d27"/>
  </g>
</svg>
