<?xml version="1.0" encoding="utf-8"?>
<!-- Generator: Adobe Illustrator 25.2.3, SVG Export Plug-In . SVG Version: 6.00 Build 0)  -->
<svg version="1.1" id="Layer_1" xmlns="http://www.w3.org/2000/svg" xmlns:xlink="http://www.w3.org/1999/xlink" x="0px" y="0px"
	 viewBox="0 0 2500 2500" style="enable-background:new 0 0 2500 2500;" xml:space="preserve">
<style type="text/css">
	.st0{fill:#00ACC1;}
	.st1{fill:#0097A7;}
	.st2{fill:#00838F;}
	.st3{fill:#00BCD4;}
</style>
<g>
	<polygon class="st0" points="1153.7,835.7 1410.8,667.3 2335.6,1196.7 2057.8,1358.7 	"/>
	<polygon class="st1" points="874.5,1154.8 1158.9,990.4 1969.2,1478.3 1685.5,1637.9 	"/>
	<polygon class="st2" points="821.3,1611.3 1109.4,1460.6 1596.9,1744.2 1300,1903.8 	"/>
	<path class="st3" d="M2335.6,1196.7l-277.7,162l8.8,709.1c0,0,264.4-84.9,264.4-478.2S2335.6,1196.7,2335.6,1196.7z"/>
	<polygon class="st3" points="1968.8,1476.3 1683.4,1638.3 1686.7,2289.6 1969.2,2112.1 	"/>
	<path class="st3" d="M1297.8,307.8l786.7,439.6l274.7-151L1448.2,88c0,0-196.7-138.8-497.5,46.3
		c-230,122.5-408.3,214.3-647.9,370.2c-59,38.4-162,69.4-162,277.7c0,8.4,0,16,0,23.1c0,117.9,0,84,0,323.9v670.7
		c11.6,30.5,26.7,54.7,46.3,69.7c393.4,300.8,879.3,555.3,879.3,555.3s185.1,92.6,416.5-23.1l117.4-64l-1.7-595.5l-300.8,162v231.4
		L511,1673V770.5L1297.8,307.8z"/>
</g>
</svg>
