<?xml version="1.0" encoding="utf-8"?>
<!-- Generator: Adobe Illustrator 25.2.3, SVG Export Plug-In . SVG Version: 6.00 Build 0)  -->
<svg version="1.1" id="Layer_1" xmlns="http://www.w3.org/2000/svg" xmlns:xlink="http://www.w3.org/1999/xlink" x="0px" y="0px"
	 viewBox="0 0 2447.6 2452.5" style="enable-background:new 0 0 2447.6 2452.5;" xml:space="preserve">
<style type="text/css">
	.st0{fill-rule:evenodd;clip-rule:evenodd;fill:#36C5F0;}
	.st1{fill-rule:evenodd;clip-rule:evenodd;fill:#2EB67D;}
	.st2{fill-rule:evenodd;clip-rule:evenodd;fill:#ECB22E;}
	.st3{fill-rule:evenodd;clip-rule:evenodd;fill:#E01E5A;}
</style>
<g>
	<path class="st0" d="M897.4,0C762.1,0.1,652.6,109.9,652.7,245.2c-0.1,135.3,109.5,245.1,244.8,245.2h244.8V245.3
		C1142.4,110,1032.8,0.2,897.4,0C897.5,0,897.5,0,897.4,0 M897.4,654H244.8C109.5,654.1-0.1,763.9,0,899.2
		c-0.2,135.3,109.4,245.1,244.7,245.3h652.7c135.3-0.1,244.9-109.9,244.8-245.2C1142.3,763.9,1032.7,654.1,897.4,654L897.4,654z"/>
	<path class="st1" d="M2447.6,899.2c0.1-135.3-109.5-245.1-244.8-245.2c-135.3,0.1-244.9,109.9-244.8,245.2v245.3h244.8
		C2338.1,1144.4,2447.7,1034.6,2447.6,899.2z M1794.9,899.2v-654C1795,110,1685.5,0.2,1550.2,0c-135.3,0.1-244.9,109.9-244.8,245.2
		v654c-0.2,135.3,109.4,245.1,244.7,245.3C1685.4,1144.4,1795,1034.6,1794.9,899.2z"/>
	<path class="st2" d="M1550.1,2452.5c135.3-0.1,244.9-109.9,244.8-245.2c0.1-135.3-109.5-245.1-244.8-245.2h-244.8v245.2
		C1305.2,2342.5,1414.8,2452.3,1550.1,2452.5z M1550.1,1798.4h652.7c135.3-0.1,244.9-109.9,244.8-245.2
		c0.2-135.3-109.4-245.1-244.7-245.3h-652.7c-135.3,0.1-244.9,109.9-244.8,245.2C1305.3,1688.5,1414.8,1798.3,1550.1,1798.4
		L1550.1,1798.4z"/>
	<path class="st3" d="M0,1553.2c-0.1,135.3,109.5,245.1,244.8,245.2c135.3-0.1,244.9-109.9,244.8-245.2V1308H244.8
		C109.5,1308.1-0.1,1417.9,0,1553.2z M652.7,1553.2v654c-0.2,135.3,109.4,245.1,244.7,245.3c135.3-0.1,244.9-109.9,244.8-245.2
		v-653.9c0.2-135.3-109.4-245.1-244.7-245.3C762.1,1308.1,652.6,1417.9,652.7,1553.2C652.7,1553.2,652.7,1553.3,652.7,1553.2"/>
</g>
</svg>
