<?xml version="1.0" encoding="utf-8"?>
<!-- Generator: Adobe Illustrator 25.2.3, SVG Export Plug-In . SVG Version: 6.00 Build 0)  -->
<svg version="1.1" id="Layer_1" xmlns="http://www.w3.org/2000/svg" xmlns:xlink="http://www.w3.org/1999/xlink" x="0px" y="0px"
	 viewBox="0 0 2500 2500" style="enable-background:new 0 0 2500 2500;" xml:space="preserve">
<style type="text/css">
	.st0{fill:url(#SVGID_1_);}
	.st1{fill:url(#SVGID_2_);}
	.st2{fill:url(#SVGID_3_);}
	.st3{fill:url(#SVGID_4_);}
	.st4{fill:url(#SVGID_5_);}
	.st5{fill:url(#SVGID_6_);}
	.st6{fill:url(#SVGID_7_);}
</style>
<g>
	<linearGradient id="SVGID_1_" gradientUnits="userSpaceOnUse" x1="1217.311" y1="331.6689" x2="1985.3718" y2="1852.4282">
		<stop  offset="0" style="stop-color:#00D5FB"/>
		<stop  offset="1" style="stop-color:#352ABE"/>
	</linearGradient>
	<path class="st0" d="M1687.6,1001l-97.7,90.1c-78.8,72.6-206.2,14.4-202.9-92.7l20.3-654.8L1687.6,1001z"/>
	<linearGradient id="SVGID_2_" gradientUnits="userSpaceOnUse" x1="855.9183" y1="514.1886" x2="1623.9806" y2="2034.9507">
		<stop  offset="0" style="stop-color:#00D5FB"/>
		<stop  offset="1" style="stop-color:#352ABE"/>
	</linearGradient>
	<path class="st1" d="M1993.2,1857.9c95.1,95.1,82.5,252.2-25.8,331.9c-191.9,141.1-430.3,223.5-685.6,219.8
		C556.7,2400.4-4,1709.9,210.3,948.9h677.4V224.5c364.3-135.9,776.9-77.4,1078.1,139.2c109.8,78.9,122.8,237.3,27.3,332.9
		L1687.6,1002c-59.6-84.8-146.2-149.2-247.2-181c-11.3-3.7-23-6.9-34.7-9.5c-4.6-1.2-9.1-2.1-13.9-3c-2.3-0.5-4.6-1.1-6.9-1.4
		c-40-7.6-81.3-10-122.1-7c-2.5,0-4.8,0.2-7.2,0.5c-99.1,9-190.8,42.3-288.1,110.3c-19.5,13.4-34.8,32.5-47.3,52.2
		c-384.1,590.7,399.3,1086.7,767.3,589.1L1993.2,1857.9z"/>
	<radialGradient id="SVGID_3_" cx="1094.0717" cy="534.4708" r="397.5585" gradientUnits="userSpaceOnUse">
		<stop  offset="0" style="stop-color:#581FB7"/>
		<stop  offset="1" style="stop-color:#FFFFFF"/>
	</radialGradient>
	<path class="st2" d="M1545.5,526.7c0,111.7-39.4,214.1-105,294.3c-15.8-5-32.1-9.3-48.6-12.5c-2.3-0.5-4.6-1.1-6.9-1.4
		c-40-7.6-81.3-10-122.1-7c-128.3,8-250.5,71.8-330.9,167.3c-4-1.4-7.9-2.6-11.8-4.2c-11.8-4.2-23.4-9-34.7-14.2h2.1V224.5
		c160.3-56.5,318.2-78.6,468.5-71.9C1470.9,237.2,1545.5,373.1,1545.5,526.7z"/>
	<linearGradient id="SVGID_4_" gradientUnits="userSpaceOnUse" x1="558.2179" y1="664.5436" x2="1326.28" y2="2185.3054">
		<stop  offset="0" style="stop-color:#00D5FB"/>
		<stop  offset="1" style="stop-color:#352ABE"/>
	</linearGradient>
	<path class="st3" d="M1280.3,1755.2c-256.8-8.5-462.2-219.2-462.2-477.9c0-195.8,117.6-364.2,286-438.2
		c117.6-51.7,192.3-169.4,192.3-297.9C1296.4,304.8,1053,146,837,242C440.5,418.2,164,815.5,164,1277.3
		c0,620,498.3,1123.6,1116.3,1132.1V1755.2z"/>
	<radialGradient id="SVGID_5_" cx="551.2101" cy="1554.6908" r="465.0126" gradientUnits="userSpaceOnUse">
		<stop  offset="0" style="stop-color:#581FB7"/>
		<stop  offset="1" style="stop-color:#FFFFFF"/>
	</radialGradient>
	<path class="st4" d="M1004.8,1656.3c-139.2-103.6-216.1-297.7-176.9-476c-207.6-159.4-524.5-101.1-663.4,115.5
		c4.3,268.5,101.9,514.2,262,706.1C678.6,2076.7,953.6,1907,1004.8,1656.3z"/>
	<linearGradient id="SVGID_6_" gradientUnits="userSpaceOnUse" x1="291.8537" y1="799.0715" x2="1059.9189" y2="2319.8396">
		<stop  offset="0" style="stop-color:#00D5FB"/>
		<stop  offset="1" style="stop-color:#352ABE"/>
	</linearGradient>
	<path class="st5" d="M574.2,1306.4c-242.9,0-400.6,255.3-292.8,473c182.7,368.9,560.6,624,998.8,630.1v-654.2
		c-181.4-6-337.2-113-413-266.5C812.2,1377.2,698.7,1306.4,574.2,1306.4z"/>
	<linearGradient id="SVGID_7_" gradientUnits="userSpaceOnUse" x1="856.8834" y1="513.6994" x2="1624.9452" y2="2034.4603">
		<stop  offset="0" style="stop-color:#00D5FB"/>
		<stop  offset="1" style="stop-color:#352ABE"/>
	</linearGradient>
	<path class="st6" d="M1687.6,1552.3l-97.7-90.1c-78.8-72.6-206.2-14.4-202.9,92.7l20.3,654.8L1687.6,1552.3z"/>
</g>
</svg>
