<?xml version="1.0" encoding="utf-8"?>
<!-- Generator: Adobe Illustrator 25.2.3, SVG Export Plug-In . SVG Version: 6.00 Build 0)  -->
<svg version="1.1" id="Layer_1" xmlns="http://www.w3.org/2000/svg" xmlns:xlink="http://www.w3.org/1999/xlink" x="0px" y="0px"
	 viewBox="0 0 2500 2500" style="enable-background:new 0 0 2500 2500;" xml:space="preserve">
<style type="text/css">
	.st0{fill:#1E18CF;}
	.st1{fill:#FFC100;}
	.st2{fill:#FF045F;}
</style>
<g>
	<g>
		<path class="st0" d="M1887.6,301.9l-42.1-107.3c0,0-17.3-50.2-25.8-65.6c-4-7.2-13.1-17.7-21-25.6
			c-41.6-41.6-99.8-59.3-151.7-42.8c-32.1,10.3-62.6,24.5-62.6,24.5s-0.2-0.2-0.4,0l-106.9,46.8c-34.9,15.2-70.8,26.7-107.5,34.4
			c-76.3,16.1-155.1,16.1-231.1,0c-36.7-7.7-72.9-19.2-107.8-34.4L930.4,88.2c0,0-56.5-27.6-76.5-33.5
			c-49.6-14.7-105.3,7.2-144.7,46.6c-6.8,6.8-17.6,21.2-21.9,29.5c-9.2,17.4-25.2,65.7-25.2,65.7l-41.4,105.5
			c-14,35.5-31.4,69-51.8,100.5c29.6-6.3,62.5-2,98.4,13.8l159.6,69.7l134.7,58.8l5.2,2.3l160.9,69.9
			c80.6,35.1,172.3,35.1,252.8,0.2l160.9-70.2l5.2-2.3l134.7-58.8l159.6-69.7c36-15.6,69-20.2,98.5-13.6
			C1919,370.9,1901.6,337.4,1887.6,301.9z"/>
		<path class="st0" d="M2202,1885.7l107.3-42.1l65.6-25.8h0.4l0.2-0.2c9-6.1,17.2-12.9,25.1-20.8c41.6-41.6,56.4-99.4,45.1-152.6
			c0.2-0.2,0-0.4,0-0.4l-0.2-0.2l-26.7-61.1c0,0,0.2-0.2,0-0.4l-46.8-106.9c-15.2-34.9-26.7-70.8-34.4-107.5
			c-16.1-76.3-16.1-155.1,0-231.1c7.7-36.7,19.2-72.9,34.4-107.8l43.7-100.3l33.5-76.5c8.4-51.1-7.2-105.3-46.6-144.7
			c-6.8-6.8-14.2-13.1-21.9-18.3l-73.3-28.8L2202,618.8c-35.5-14-69-31.4-100.5-51.8c6.3,29.6,2,62.5-13.8,98.4L2018,825
			l-58.8,134.7l-2.3,5.2l-69.9,160.9c-35.1,80.6-35.1,172.3-0.2,252.8l70.2,160.9l2.3,5.2l58.8,134.7l69.7,159.6
			c15.6,36,20.2,69,13.6,98.5C2133,1917,2166.5,1899.7,2202,1885.7z"/>
		<g>
			<path class="st0" d="M617.9,2200.4l42.1,107.3c0,0,17.3,50.2,25.8,65.6c4,7.2,13.1,17.7,21,25.6c41.6,41.6,99.8,59.3,151.7,42.8
				c32.1-10.3,62.6-24.5,62.6-24.5s0.2,0.2,0.4,0l106.9-46.8c34.9-15.2,70.8-26.7,107.5-34.4c76.3-16.1,155.1-16.1,231.1,0
				c36.7,7.7,72.9,19.2,107.8,34.4l100.3,43.7c0,0,56.5,27.6,76.5,33.5c49.6,14.7,105.3-7.2,144.7-46.6c6.8-6.8,17.6-21.2,21.9-29.5
				c9.2-17.4,25.2-65.7,25.2-65.7l41.4-105.5c14-35.5,31.4-69,51.8-100.5c-29.6,6.3-62.5,2-98.4-13.8l-159.6-69.7l-134.7-58.8
				l-5.2-2.3l-160.9-69.9c-80.6-35.1-172.3-35.1-252.8-0.2l-160.9,70.2l-5.2,2.3l-134.7,58.8l-159.6,69.7
				c-36,15.6-69,20.2-98.5,13.6C586.6,2131.4,604,2164.9,617.9,2200.4z"/>
			<path class="st0" d="M303.5,616.6l-107.3,42.1l-65.6,25.8h-0.4l-0.2,0.2c-9,6.1-17.2,12.9-25.1,20.8
				C63.5,747,48.6,804.8,59.9,858c-0.2,0.2,0,0.4,0,0.4l0.2,0.2l26.7,61.1c0,0-0.2,0.2,0,0.4l46.8,106.9
				c15.2,34.9,26.7,70.8,34.4,107.5c16.1,76.3,16.1,155.1,0,231.1c-7.7,36.7-19.2,72.9-34.4,107.8l-43.7,100.3l-33.5,76.5
				c-8.4,51.1,7.2,105.3,46.6,144.7c6.8,6.8,14.2,13.1,21.9,18.3l73.3,28.8l105.5,41.4c35.5,14,69,31.4,100.5,51.8
				c-6.3-29.6-2-62.5,13.8-98.3l69.7-159.6l58.8-134.7l2.3-5.2l69.9-160.9c35.1-80.6,35.1-172.3,0.2-252.8l-70.2-160.9l-2.3-5.2
				l-58.8-134.7l-69.7-159.6c-15.6-36-20.2-69-13.6-98.5C372.5,585.2,339,602.6,303.5,616.6z"/>
		</g>
	</g>
	<g>
		<path class="st1" d="M1029.8,121.3L923.2,74.8c0,0-48.1-23.5-65.2-28.4c-8-2.3-22-3.3-33.2-3.3c-59.3,0-113.5,28.9-138.7,77.7
			C670.5,151,659,182.9,659,182.9s-0.3,0-0.3,0.3l-42.9,109.6c-14.1,35.8-31.4,69.5-52.1,101.2c-42.9,65.9-99.2,122.2-164.8,164.8
			c-31.7,20.7-65.7,38.3-101.5,52.4l-102.7,40.4c0,0-59.9,20.6-78.5,30.7c-45.9,24.9-70,80.2-70,136.5c0,9.7,2.6,27.7,5.4,36.6
			c5.9,19,28.8,64.8,28.8,64.8l45.7,104.8c12.4,28.5,22.3,57.7,29.8,87.4c2.1,8.1,12,10.9,17.7,4.7c16.4-18,38.7-32.8,67.3-43.9
			l163.5-64.1l138-54.2l5.4-2l164.6-64.9c82.5-32.5,148-97.9,180.4-180.2l64.7-164.8l2-5.4l54.2-138l64.1-163.5
			c11.3-28.5,25.9-51,43.9-67.3c6.2-5.7,3.5-15.6-4.7-17.7C1087.4,143.6,1058.2,133.7,1029.8,121.3z"/>
		<path class="st2" d="M2383.6,1026.7l46.5-106.6l28.4-65.2l0.3-0.3v-0.3c2-10.7,3.1-21.5,3.1-32.7c0-59.3-30.7-111.2-76.7-141.1
			c0-0.3-0.3-0.3-0.3-0.3h-0.3l-62.6-24.5c0,0,0-0.3-0.3-0.3l-109.6-42.9c-35.8-14.1-69.5-31.4-101.2-52.1
			c-65.9-42.9-122.2-99.2-164.8-164.8c-20.7-31.7-38.3-65.7-52.4-101.5l-40.4-102.7l-30.1-77c-0.4-1-0.9-1.9-1.5-2.7
			c-30.5-41.7-79.9-68.7-135.5-68.7c-9.7,0-19.4,0.8-28.6,2.6l-72.8,31.7L1480,123.1c-28.5,12.4-57.7,22.3-87.4,29.8
			c-8.1,2.1-10.9,12-4.7,17.7c18,16.4,32.8,38.7,43.9,67.3l64.1,163.5l54.2,138l2,5.4l64.9,164.6c32.5,82.5,97.9,148,180.2,180.4
			l164.8,64.7l5.4,2l138,54.2l163.5,64.1c28.5,11.3,51,25.9,67.3,43.9c5.7,6.2,15.6,3.5,17.7-4.7
			C2361.4,1084.3,2371.3,1055.2,2383.6,1026.7z"/>
		<g>
			<path class="st1" d="M1478.2,2380.9l106.6,46.5c0,0,48.1,23.5,65.2,28.4c8,2.3,22,3.3,33.2,3.3c59.3,0,113.5-28.9,138.7-77.7
				c15.6-30.2,27.2-62.1,27.2-62.1s0.3,0,0.3-0.3l42.9-109.6c14.1-35.8,31.4-69.5,52.1-101.2c42.9-65.9,99.2-122.2,164.8-164.8
				c31.7-20.7,65.7-38.3,101.5-52.4l102.7-40.4c0,0,59.9-20.6,78.5-30.7c45.9-24.9,70-80.2,70-136.5c0-9.7-2.6-27.7-5.4-36.6
				c-5.9-19-28.8-64.8-28.8-64.8l-45.7-104.8c-12.4-28.5-22.3-57.7-29.8-87.4c-2.1-8.1-12-10.9-17.7-4.7
				c-16.4,18-38.7,32.8-67.3,43.9l-163.5,64.1l-138,54.2l-5.4,2l-164.6,64.9c-82.5,32.5-148,97.9-180.4,180.2l-64.7,164.8l-2,5.4
				l-54.2,138l-64.1,163.5c-11.3,28.5-25.9,51-43.9,67.3c-6.2,5.7-3.5,15.6,4.7,17.7C1420.6,2358.7,1449.8,2368.6,1478.2,2380.9z"/>
			<path class="st2" d="M124.4,1475.6l-46.5,106.6l-28.4,65.2l-0.3,0.3v0.3c-2,10.7-3.1,21.5-3.1,32.7c0,59.3,30.7,111.2,76.7,141.1
				c0,0.3,0.3,0.3,0.3,0.3h0.3l62.6,24.5c0,0,0,0.3,0.3,0.3l109.6,42.9c35.8,14.1,69.5,31.4,101.2,52.1
				c65.9,42.9,122.2,99.2,164.8,164.8c20.7,31.7,38.3,65.7,52.4,101.5l40.4,102.7l30.1,77c0.4,1,0.9,1.9,1.5,2.7
				c30.5,41.7,79.9,68.7,135.5,68.7c9.7,0,19.4-0.8,28.6-2.6l72.8-31.7l104.8-45.7c28.5-12.4,57.7-22.3,87.4-29.8
				c8.1-2.1,10.9-12,4.7-17.7c-18-16.4-32.8-38.7-43.9-67.3l-64.1-163.5l-54.2-138l-2-5.4L891,1792.9
				c-32.5-82.5-97.9-148-180.2-180.4L546,1547.9l-5.4-2l-138-54.2l-163.5-64.1c-28.5-11.3-51-25.9-67.3-43.9
				c-5.7-6.2-15.6-3.5-17.7,4.7C146.6,1417.9,136.7,1447.1,124.4,1475.6z"/>
		</g>
	</g>
</g>
</svg>
