<svg id="Logo" xmlns="http://www.w3.org/2000/svg" xmlns:xlink="http://www.w3.org/1999/xlink" width="193.738" height="30.359" viewBox="0 0 193.738 30.359">
  <defs>
    <clipPath id="clip-path">
      <rect id="Rectangle_3" data-name="Rectangle 3" width="193.738" height="30.359" fill="none"/>
    </clipPath>
  </defs>
  <g id="Group_1" data-name="Group 1" clip-path="url(#clip-path)">
    <path id="Path_1" data-name="Path 1" d="M20.16,12.416h9.781V31.09H14A13.4,13.4,0,0,1,3.977,26.734a14.877,14.877,0,0,1-2.918-4.825A16.918,16.918,0,0,1,0,15.856,16.211,16.211,0,0,1,1.059,9.892,14.057,14.057,0,0,1,3.977,5.246,12.68,12.68,0,0,1,8.406,2.253,14.652,14.652,0,0,1,14,1.2H30.636L25.981,8.977H14a6.8,6.8,0,0,0-2.709.536,6.39,6.39,0,0,0-2.171,1.519,7.2,7.2,0,0,0-1.441,2.3,7.9,7.9,0,0,0-.521,2.926,8.131,8.131,0,0,0,.5,2.926,6.354,6.354,0,0,0,3.595,3.708A7.149,7.149,0,0,0,14,23.406h8.788l1.2-4.333h1.387Z" transform="translate(0 -0.731)" fill="#1a1718"/>
    <path id="Path_2" data-name="Path 2" d="M92.529,31.09h-7.19V16.579L92.529,1.2Z" transform="translate(-51.161 -0.731)" fill="#1a1718"/>
    <path id="Path_3" data-name="Path 3" d="M44.992,29.776H56.933L48.228,48.45l1.9-12.027-5.13-3.481Z" transform="translate(-26.973 -18.091)" fill="#e3001b"/>
    <path id="Path_4" data-name="Path 4" d="M78.743,1.2h9.832L81.407,16.579l1.561-9.9L78.743,3.809Z" transform="translate(-47.206 -0.731)" fill="#e3001b"/>
    <path id="Path_5" data-name="Path 5" d="M239.506,30.359a5.139,5.139,0,0,1-1.682-.286,5.263,5.263,0,0,1-1.853-1.3l-17.46-16.168V29.876h-8.006V5.492a6.972,6.972,0,0,1,.4-2.5,4.81,4.81,0,0,1,1.065-1.713,4.047,4.047,0,0,1,1.533-.967A5.419,5.419,0,0,1,215.317,0a5.023,5.023,0,0,1,1.64.286,5.629,5.629,0,0,1,1.9,1.3l17.46,16.168V.483h8.049v24.34a6.99,6.99,0,0,1-.4,2.5,5.067,5.067,0,0,1-1.065,1.735,3.9,3.9,0,0,1-1.555.989,5.61,5.61,0,0,1-1.831.308" transform="translate(-126.197 0)" fill="#1a1718"/>
    <path id="Path_6" data-name="Path 6" d="M132.714,18.145q.58,1.054,1.213,2.263t1.11,2l4.027,7.469h8.476L133.26,3.295a8.3,8.3,0,0,0-1.827-2.35,4.286,4.286,0,0,0-5.449.066,9.336,9.336,0,0,0-1.81,2.284L109.519,29.876h8.369l10.726-19.507Z" transform="translate(-65.656 0)" fill="#1a1718"/>
    <path id="Path_7" data-name="Path 7" d="M333.228,1.2l6.2,6.245H323.451V31.09h-7.19V7.448H303.375V1.2Z" transform="translate(-181.872 -0.731)" fill="#1a1718"/>
    <rect id="Rectangle_2" data-name="Rectangle 2" width="16.637" height="7.688" transform="translate(54.718 16.674)" fill="#1a1718"/>
    <path id="Path_8" data-name="Path 8" d="M425.836,1.222,415.846,22.65l-4.371,8.444-8.818-.044,5.4-9.4-20.9-20.429h10.859l13.582,13.231,6.669-13.231Z" transform="translate(-232.098 -0.743)" fill="#1a1718"/>
    <path id="Path_9" data-name="Path 9" d="M449.526,1.222h13.7L453.239,22.65l2.175-13.8-5.887-4Z" transform="translate(-269.49 -0.743)" fill="#e3001b"/>
  </g>
</svg>
