<?xml version="1.0" encoding="utf-8"?>
<!-- Generator: Adobe Illustrator 25.1.0, SVG Export Plug-In . SVG Version: 6.00 Build 0)  -->
<svg version="1.1" id="Layer_1" xmlns="http://www.w3.org/2000/svg" xmlns:xlink="http://www.w3.org/1999/xlink" x="0px" y="0px"
	 viewBox="0 0 512 512" style="enable-background:new 0 0 512 512;" xml:space="preserve">
<style type="text/css">
	.st0{fill:#A684D3;}
</style>
<path class="st0" d="M132.3,204.8c16.5,0,29.9-13.4,29.9-29.9v-55.5h17.1c4.7,0,8.5-3.8,8.5-8.5c0-4.7-3.8-8.5-8.5-8.5H128
	c-4.7,0-8.5,3.8-8.5,8.5c0,4.7,3.8,8.5,8.5,8.5h17.1v55.5c0,7.1-5.7,12.8-12.8,12.8c-7.1,0-12.8-5.7-12.8-12.8
	c0-4.7-3.8-8.5-8.5-8.5c-4.7,0-8.5,3.8-8.5,8.5C102.4,191.4,115.8,204.8,132.3,204.8z"/>
<path class="st0" d="M221.9,102.4c-18.9,0-34.1,15.3-34.1,34.1v34.1c0,18.9,15.3,34.1,34.1,34.1s34.1-15.3,34.1-34.1v-34.1
	C256,117.7,240.7,102.4,221.9,102.4z M238.9,170.7c0,9.4-7.6,17.1-17.1,17.1s-17.1-7.6-17.1-17.1v-34.1c0-9.4,7.6-17.1,17.1-17.1
	s17.1,7.6,17.1,17.1V170.7z"/>
<path class="st0" d="M281.6,204.8h21.3c12.1,0,23.1-7.3,27.7-18.6s1.9-24.1-6.8-32.6c8.7-8.5,11.4-21.4,6.8-32.6
	c-4.6-11.2-15.5-18.6-27.7-18.6h-21.3c-9.4,0-17.1,7.6-17.1,17.1v68.3C264.5,197.2,272.2,204.8,281.6,204.8z M315.7,174.9
	c0,7.1-5.7,12.8-12.8,12.8h-21.3v-25.6h21.3C310,162.1,315.7,167.9,315.7,174.9z M281.6,119.5h21.3c7.1,0,12.8,5.7,12.8,12.8
	c0,7.1-5.7,12.8-12.8,12.8h-21.3V119.5z"/>
<path class="st0" d="M379.7,187.7h-12.8c-4.4-0.6-7.9-4.1-8.5-8.5c0-4.7-3.8-8.5-8.5-8.5c-4.7,0-8.5,3.8-8.5,8.5
	c0.7,13.8,11.8,24.9,25.6,25.6h12.8c16.5,0,29.9-13.4,29.9-29.9s-13.4-29.9-29.9-29.9h-8.5c-7.1,0-12.8-5.7-12.8-12.8
	c0-7.1,5.7-12.8,12.8-12.8H384c4.4,0.6,7.9,4.1,8.5,8.5c0,4.7,3.8,8.5,8.5,8.5c4.7,0,8.5-3.8,8.5-8.5c-0.7-13.8-11.8-24.9-25.6-25.6
	h-12.8c-16.5,0-29.9,13.4-29.9,29.9c0,16.5,13.4,29.9,29.9,29.9h8.5c7.1,0,12.8,5.7,12.8,12.8S386.8,187.7,379.7,187.7z"/>
<path class="st0" d="M230.4,238.9H59.7c-9.4,0-17.1,7.6-17.1,17.1v51.2c0,9.4,7.6,17.1,17.1,17.1h170.7c9.4,0,17.1-7.6,17.1-17.1
	V256C247.5,246.6,239.8,238.9,230.4,238.9z M59.7,307.2V256h170.7v51.2H59.7z"/>
<path class="st0" d="M460.8,375.5H281.6c-9.4,0-17.1,7.6-17.1,17.1v51.2c0,9.4,7.6,17.1,17.1,17.1h179.2c9.4,0,17.1-7.6,17.1-17.1
	v-51.2C477.9,383.1,470.2,375.5,460.8,375.5z M281.6,443.7v-51.2h179.2v51.2H281.6z"/>
<path class="st0" d="M469.3,238.9H273.1c-4.7,0-8.5,3.8-8.5,8.5c0,4.7,3.8,8.5,8.5,8.5h196.3c4.7,0,8.5-3.8,8.5-8.5
	C477.9,242.8,474,238.9,469.3,238.9z"/>
<path class="st0" d="M469.3,273.1H273.1c-4.7,0-8.5,3.8-8.5,8.5c0,4.7,3.8,8.5,8.5,8.5h196.3c4.7,0,8.5-3.8,8.5-8.5
	C477.9,276.9,474,273.1,469.3,273.1z"/>
<path class="st0" d="M469.3,307.2H273.1c-4.7,0-8.5,3.8-8.5,8.5c0,4.7,3.8,8.5,8.5,8.5h196.3c4.7,0,8.5-3.8,8.5-8.5
	C477.9,311,474,307.2,469.3,307.2z"/>
<path class="st0" d="M469.3,341.3H273.1c-4.7,0-8.5,3.8-8.5,8.5c0,4.7,3.8,8.5,8.5,8.5h196.3c4.7,0,8.5-3.8,8.5-8.5
	C477.9,345.2,474,341.3,469.3,341.3z"/>
<path class="st0" d="M238.9,375.5H51.2c-4.7,0-8.5,3.8-8.5,8.5s3.8,8.5,8.5,8.5h187.7c4.7,0,8.5-3.8,8.5-8.5
	S243.6,375.5,238.9,375.5z"/>
<path class="st0" d="M238.9,341.3H51.2c-4.7,0-8.5,3.8-8.5,8.5c0,4.7,3.8,8.5,8.5,8.5h187.7c4.7,0,8.5-3.8,8.5-8.5
	C247.5,345.2,243.6,341.3,238.9,341.3z"/>
<path class="st0" d="M238.9,409.6H51.2c-4.7,0-8.5,3.8-8.5,8.5c0,4.7,3.8,8.5,8.5,8.5h187.7c4.7,0,8.5-3.8,8.5-8.5
	C247.5,413.4,243.6,409.6,238.9,409.6z"/>
<path class="st0" d="M238.9,443.7H51.2c-4.7,0-8.5,3.8-8.5,8.5c0,4.7,3.8,8.5,8.5,8.5h187.7c4.7,0,8.5-3.8,8.5-8.5
	C247.5,447.6,243.6,443.7,238.9,443.7z"/>
<path class="st0" d="M469.3,0H42.7C19.1,0,0,19.1,0,42.7v426.7C0,492.9,19.1,512,42.7,512h426.7c23.6,0,42.6-19.1,42.7-42.7V42.7
	C512,19.1,492.9,0,469.3,0z M42.7,17.1h426.7c14.1,0,25.6,11.5,25.6,25.6v25.6H17.1V42.7C17.1,28.5,28.5,17.1,42.7,17.1z
	 M469.3,494.9H42.7c-14.1,0-25.6-11.5-25.6-25.6v-384h477.9v384C494.9,483.5,483.5,494.9,469.3,494.9z"/>
<path class="st0" d="M51.2,42.7c0,4.7-3.8,8.5-8.5,8.5c-4.7,0-8.5-3.8-8.5-8.5c0-4.7,3.8-8.5,8.5-8.5C47.4,34.1,51.2,38,51.2,42.7z"
	/>
<path class="st0" d="M85.3,42.7c0,4.7-3.8,8.5-8.5,8.5c-4.7,0-8.5-3.8-8.5-8.5c0-4.7,3.8-8.5,8.5-8.5C81.5,34.1,85.3,38,85.3,42.7z"
	/>
<path class="st0" d="M119.5,42.7c0,4.7-3.8,8.5-8.5,8.5c-4.7,0-8.5-3.8-8.5-8.5c0-4.7,3.8-8.5,8.5-8.5
	C115.6,34.1,119.5,38,119.5,42.7z"/>
</svg>
