<?xml version="1.0" encoding="utf-8"?>
<!-- Generator: Adobe Illustrator 25.1.0, SVG Export Plug-In . SVG Version: 6.00 Build 0)  -->
<svg version="1.1" id="Layer_1" xmlns="http://www.w3.org/2000/svg" xmlns:xlink="http://www.w3.org/1999/xlink" x="0px" y="0px"
	 viewBox="0 0 512 512" style="enable-background:new 0 0 512 512;" xml:space="preserve">
<style type="text/css">
	.st0{fill:#EFEFEF;}
	.st1{fill:#F3F3F1;}
	.st2{fill:#D5DBE1;}
	.st3{fill:#CAE2E6;}
	.st4{fill:#648A8E;}
	.st5{fill:#A4AFC1;}
</style>
<g id="Layer_2_1_">
	<g>
		<path class="st0" d="M115.4,79.8c-25.7,95-92.5,146.9-104.9,192.6s-12,149,198.5,205.9s276.4-64,290-114.4
			C562.7,128.3,160.9-88.4,115.4,79.8L115.4,79.8z"/>
	</g>
</g>
<g id="color">
	<g>
		<path class="st1" d="M387.6,96H124.4C108.8,96,96,108.8,96,124.4v64c0,15.6,12.8,28.4,28.4,28.4h14.2h234.7h14.2
			c15.6,0,28.4-12.8,28.4-28.4v-64C416,108.8,403.2,96,387.6,96z"/>
	</g>
	<g>
		<path class="st2" d="M128,188.4v-64c0-15.6,12.8-28.4,28.4-28.4h-32C108.8,96,96,108.8,96,124.4v64c0,15.6,12.8,28.4,28.4,28.4
			h14.2h17.8C140.8,216.9,128,204.1,128,188.4z"/>
	</g>
	<g>
		<path class="st3" d="M373.3,416V167.1H138.7V416l42.7-35.6l39.1,35.6l35.6-35.6l35.6,35.6l39.1-35.6L373.3,416z"/>
	</g>
	<g>
		<g>
			<path class="st4" d="M213.3,380.4l-16.7,13.9l23.8,21.6l15.2-15.2L213.3,380.4z"/>
		</g>
		<g>
			<path class="st4" d="M170.7,167.1h-32V416l32-26.7V167.1z"/>
		</g>
		<g>
			<path class="st4" d="M288,380.4l-16,16l19.6,19.6l16.8-15.2L288,380.4z"/>
		</g>
		<g>
			<path class="st4" d="M362.7,380.4l-15.3,13.9l26,21.6v-26.7L362.7,380.4z"/>
		</g>
	</g>
	<g>
		<g>
			<path class="st5" d="M361.9,459.3l20.1-20.1l10.1,10.1L372,469.4L361.9,459.3z"/>
		</g>
		<g>
			<path class="st5" d="M419.7,401.5l20.1-20.1l10.1,10.1l-20.1,20.1L419.7,401.5z"/>
		</g>
		<g>
			<path class="st5" d="M419.7,451.8l10.1-10.1l20.1,20.1l-10.1,10.1L419.7,451.8z"/>
		</g>
	</g>
	<g>
		<path class="st5" d="M69.4,437.3c-11.8,0-21.3-9.6-21.3-21.3s9.6-21.3,21.3-21.3s21.3,9.6,21.3,21.3S81.2,437.3,69.4,437.3z
			 M69.4,408.9c-3.9,0-7.1,3.2-7.1,7.1s3.2,7.1,7.1,7.1s7.1-3.2,7.1-7.1S73.3,408.9,69.4,408.9z"/>
	</g>
</g>
<g id="line">
	<g>
		<path d="M387.6,227.6h-14.2v-21.3h14.2c9.8,0,17.8-8,17.8-17.8v-64c0-9.8-8-17.8-17.8-17.8H124.4c-9.8,0-17.8,8-17.8,17.8v64
			c0,9.8,8,17.8,17.8,17.8h14.2v21.3h-14.2c-21.6,0-39.1-17.5-39.1-39.1v-64c0-21.6,17.5-39.1,39.1-39.1h263.1
			c21.6,0,39.1,17.6,39.1,39.1v64C426.7,210,409.1,227.6,387.6,227.6z"/>
	</g>
	<g>
		<path d="M373.3,426.7c-2.4,0-4.9-0.8-6.8-2.5L331,394.6l-32.2,29.3c-4.2,3.8-10.7,3.7-14.7-0.4l-28-28l-28,28
			c-4,4-10.5,4.2-14.7,0.4L181,394.6l-35.5,29.6c-3.2,2.6-7.6,3.2-11.3,1.5c-3.7-1.8-6.1-5.5-6.1-9.7V167.1
			c0-5.9,4.8-10.7,10.7-10.7h234.7c5.9,0,10.7,4.8,10.7,10.7V416c0,4.1-2.4,7.9-6.1,9.7C376.4,426.3,374.9,426.7,373.3,426.7z
			 M256,369.8c2.7,0,5.5,1,7.5,3.1l28.4,28.4l31.6-28.7c3.9-3.6,9.9-3.7,14-0.3l25.2,21V177.8H149.3v215.5l25.2-21
			c4.1-3.4,10.1-3.3,14,0.3l31.6,28.7l28.4-28.4C250.5,370.8,253.3,369.8,256,369.8L256,369.8z"/>
	</g>
	<g>
		<g>
			<path d="M261.4,320h-30.3v-21.3h30.3c4.9,0,8.8-4,8.8-8.8c0-5-4-9-8.8-9h-10.8c-16.6,0-30.2-13.5-30.2-30.2
				c0-16.8,13.5-30.3,30.2-30.3h30.3v21.3h-30.3c-4.9,0-8.8,4-8.8,8.8c0,5,4,9,8.8,9h10.8c16.6,0,30.2,13.5,30.2,30.2
				C291.6,306.5,278,320,261.4,320L261.4,320z"/>
		</g>
		<g>
			<path d="M245.3,209.8h21.3v21.3h-21.3V209.8z"/>
		</g>
		<g>
			<path d="M245.3,309.3h21.3v21.3h-21.3V309.3z"/>
		</g>
	</g>
</g>
</svg>
