<?xml version="1.0" encoding="utf-8"?>
<!-- Generator: Adobe Illustrator 25.1.0, SVG Export Plug-In . SVG Version: 6.00 Build 0)  -->
<svg version="1.1" id="_x33_0" xmlns="http://www.w3.org/2000/svg" xmlns:xlink="http://www.w3.org/1999/xlink" x="0px" y="0px"
	 viewBox="0 0 512 512" style="enable-background:new 0 0 512 512;" xml:space="preserve">
<style type="text/css">
	.st0{fill:#0B6975;}
</style>
<g>
	<path class="st0" d="M480,216c-2.8,0-5.5,0.6-8,1.5V208c0-13.2-10.8-24-24-24c-3.2,0-6.2,0.6-8.9,1.8c-2.1-7.6-7.7-13.7-15.1-16.3
		V24c0-8.8-7.2-16-16-16H104c-8.8,0-16,7.2-16,16v304.4C43.2,332.5,8,370.2,8,416c0,48.5,39.5,88,88,88c27.3,0,51.7-12.5,67.8-32
		H360v32h112v-85.2c20.7-26.8,32-60.1,32-94V240C504,226.8,493.2,216,480,216z M96,488c-39.7,0-72-32.3-72-72s32.3-72,72-72
		s72,32.3,72,72S135.7,488,96,488z M174.3,456c6.2-12,9.7-25.6,9.7-40c0-45.8-35.2-83.5-80-87.6V24h304v145.5
		c-7.4,2.6-13,8.7-15.1,16.3c-2.8-1.1-5.8-1.8-8.9-1.8c-13.2,0-24,10.8-24,24l0,44.4c-4.7-2.8-10.2-4.4-16-4.4c-8.8,0-16,7.2-16,16
		v60.8c0,17.5,3.1,34.8,8.9,51.2H200v48h160v32H174.3z M216,408v-16h16v16H216z M248,392h16v16h-16V392z M280,392h16v16h-16V392z
		 M312,392h16v16h-16V392z M344,392.8c2.6,5.2,5.3,10.3,8.4,15.2H344V392.8z M376,488v-64h80v64H376z M488,324.8
		c0,30-10,59.4-28,83.2H372c-18.1-23.9-28-53.2-28-83.2V264c8.8,0,16,7.2,16,16v32h16v-32h0l0-72c0-4.4,3.6-8,8-8s8,3.6,8,8v104h16
		V192c0-4.4,3.6-8,8-8s8,3.6,8,8v120h16V208c0-4.4,3.6-8,8-8s8,3.6,8,8v104h16v-72c0-4.4,3.6-8,8-8s8,3.6,8,8V324.8z"/>
	<path class="st0" d="M71.7,444.3l-18-18l-11.3,11.3l30,30l69.6-78.3l-12-10.6L71.7,444.3z"/>
	<path class="st0" d="M312,40H120v256h192V40z M296,56v174.9c-8.7-10.5-21-18-35.2-20l-14.8-2.1l-3-9.1c9.6-6.6,16.7-16.6,19.6-28.2
		l7.2-10.3c6.7-9.6,10.2-20.8,10.2-32.5c0-31.2-25.4-56.6-56.7-56.6h-14.7c-31.2,0-56.7,25.4-56.7,56.7c0,11.7,3.5,22.9,10.2,32.5
		l7.2,10.3c2.9,11.6,9.9,21.7,19.6,28.2l-3,9.1l-14.8,2.1c-14.2,2-26.5,9.5-35.2,20V56L296,56z M170,141.2c-1.3-4-2-8.3-2-12.6
		c0-22.4,18.2-40.7,40.7-40.7h14.7c22.4,0,40.7,18.2,40.7,40.7c0,4.1-0.6,8.1-1.8,11.9c-3-7.5-9.8-13.2-18.3-14.7l-15.6-2.6
		c-8.8-1.5-16-7.6-18.8-16.1l-1.9-5.7l-15.2,5.1l1.9,5.7c0.8,2.3,1.8,4.5,2.9,6.6l-9.1,3.6C179.5,126,173.1,132.9,170,141.2z
		 M184,152.2c0-6.6,3.9-12.4,10.1-14.8l14.3-5.7c5,3.7,10.9,6.3,17.3,7.4l15.6,2.6c3.9,0.6,6.7,4,6.7,7.9V160c0,17.6-14.4,32-32,32
		c-17.6,0-32-14.4-32-32L184,152.2z M241.9,224.4l7.2,1l-10.6,17.7l-9.9-9.9L241.9,224.4z M216,208L216,208c4.3,0,8.4-0.6,12.4-1.7
		l2.1,6.4l-14.5,9.6l-14.5-9.6l2.1-6.4C207.6,207.4,211.7,208,216,208L216,208z M190.1,224.4l13.3,8.9l-9.9,9.9l-10.6-17.7
		L190.1,224.4z M166.2,228.5l24.2,40.4l25.6-25.6l25.6,25.6l24.2-40.4c14.2,4.9,24.9,17.5,26.8,32.8l2.3,18.6H137.1l2.3-18.6
		C141.3,246,151.9,233.4,166.2,228.5L166.2,228.5z"/>
	<path class="st0" d="M328,56h16v16h-16V56z"/>
	<path class="st0" d="M360,56h16v16h-16V56z"/>
	<path class="st0" d="M328,88h64v16h-64V88z"/>
	<path class="st0" d="M328,120h64v16h-64V120z"/>
	<path class="st0" d="M328,152h48v16h-48V152z"/>
	<path class="st0" d="M168,312h128v16H168V312z"/>
	<path class="st0" d="M184,344h112v16H184V344z"/>
</g>
</svg>
